<svg id="SVGDoc" width="19" height="34" xmlns="http://www.w3.org/2000/svg" version="1.1" viewBox="0 0 19 34" xmlns:xlink="http://www.w3.org/1999/xlink" xmlns:avocode="https://avocode.com/"><defs></defs><desc>Generated with Avocode.</desc><g><g><title>Vector</title>
<path d="M6.8849,34h-0.17462v-2.5149h-6.71028v-29.02868h6.7186v-2.45642l12.2814,2.60264c0,1.83256 0,4.06479 0,5.89736v22.5367c0,0.2729 0,0.4094 -0.3077,0.4581c-0.6569,0.1073 -1.3137,0.2632 -1.9706,0.3997l-8.09063,1.7058zM6.65208,29.1456v-24.27175h-4.63983v24.27175zM8.72254,18.1307c0.39912,0 0.74004,-0.4776 0.76499,-1.0917c0.05222,-0.5535 -0.26575,-1.0617 -0.73173,-1.1697c-0.45752,0.0466 -0.79619,0.519 -0.75647,1.0554c0.00187,0.0252 0.00458,0.0503 0.00811,0.0753c-0.05564,0.5397 0.25839,1.0363 0.7151,1.1307z" fill="#235e6b" fill-opacity="1"></path></g><g><title>JCV0W3</title>
<g><title>Vector</title>
<path d="M6.8849,34h-0.17462v-2.5149h-6.71028v-29.02868h6.7186v-2.45642l12.2814,2.60264c0,1.83256 0,4.06479 0,5.89736v22.5367c0,0.2729 0,0.4094 -0.3077,0.4581c-0.6569,0.1073 -1.3137,0.2632 -1.9706,0.3997l-8.09063,1.7058zM6.65208,29.1456v-24.27175h-4.63983v24.27175zM8.72254,18.1307c0.39912,0 0.74004,-0.4776 0.76499,-1.0917c0.05222,-0.5535 -0.26575,-1.0617 -0.73173,-1.1697c-0.45752,0.0466 -0.79619,0.519 -0.75647,1.0554c0.00187,0.0252 0.00458,0.0503 0.00811,0.0753c-0.05564,0.5397 0.25839,1.0363 0.7151,1.1307z" fill="#235e6b" fill-opacity="1"></path></g></g><g><title>Layer_1-2</title>
<g><title>JCV0W3</title>
<g><title>Vector</title>
<path d="M6.8849,34h-0.17462v-2.5149h-6.71028v-29.02868h6.7186v-2.45642l12.2814,2.60264c0,1.83256 0,4.06479 0,5.89736v22.5367c0,0.2729 0,0.4094 -0.3077,0.4581c-0.6569,0.1073 -1.3137,0.2632 -1.9706,0.3997l-8.09063,1.7058zM6.65208,29.1456v-24.27175h-4.63983v24.27175zM8.72254,18.1307c0.39912,0 0.74004,-0.4776 0.76499,-1.0917c0.05222,-0.5535 -0.26575,-1.0617 -0.73173,-1.1697c-0.45752,0.0466 -0.79619,0.519 -0.75647,1.0554c0.00187,0.0252 0.00458,0.0503 0.00811,0.0753c-0.05564,0.5397 0.25839,1.0363 0.7151,1.1307z" fill="#235e6b" fill-opacity="1"></path></g></g></g><g><title>Layer_2</title>
<g><title>Layer_1-2</title>
<g><title>JCV0W3</title>
<g><title>Vector</title>
<path d="M6.8849,34h-0.17462v-2.5149h-6.71028v-29.02868h6.7186v-2.45642l12.2814,2.60264c0,1.83256 0,4.06479 0,5.89736v22.5367c0,0.2729 0,0.4094 -0.3077,0.4581c-0.6569,0.1073 -1.3137,0.2632 -1.9706,0.3997l-8.09063,1.7058zM6.65208,29.1456v-24.27175h-4.63983v24.27175zM8.72254,18.1307c0.39912,0 0.74004,-0.4776 0.76499,-1.0917c0.05222,-0.5535 -0.26575,-1.0617 -0.73173,-1.1697c-0.45752,0.0466 -0.79619,0.519 -0.75647,1.0554c0.00187,0.0252 0.00458,0.0503 0.00811,0.0753c-0.05564,0.5397 0.25839,1.0363 0.7151,1.1307z" fill="#235e6b" fill-opacity="1"></path></g></g></g></g><g><title>Background</title></g><g><title>Door opening 1</title>
<g><title>Background</title></g><g><title>Layer_2</title>
<g><title>Layer_1-2</title>
<g><title>JCV0W3</title>
<g><title>Vector</title>
<path d="M6.8849,34h-0.17462v-2.5149h-6.71028v-29.02868h6.7186v-2.45642l12.2814,2.60264c0,1.83256 0,4.06479 0,5.89736v22.5367c0,0.2729 0,0.4094 -0.3077,0.4581c-0.6569,0.1073 -1.3137,0.2632 -1.9706,0.3997l-8.09063,1.7058zM6.65208,29.1456v-24.27175h-4.63983v24.27175zM8.72254,18.1307c0.39912,0 0.74004,-0.4776 0.76499,-1.0917c0.05222,-0.5535 -0.26575,-1.0617 -0.73173,-1.1697c-0.45752,0.0466 -0.79619,0.519 -0.75647,1.0554c0.00187,0.0252 0.00458,0.0503 0.00811,0.0753c-0.05564,0.5397 0.25839,1.0363 0.7151,1.1307z" fill="#235e6b" fill-opacity="1"></path></g></g></g></g></g></g></svg>