<svg xmlns="http://www.w3.org/2000/svg" width="1327" height="851" viewBox="0 0 1327 851" fill="none">
<path d="M934.666 3.3334C883.2 13.0667 843.6 34.8001 812.933 70C783.466 103.867 768.8 142.667 768.667 186.667C768.667 217.867 775.6 244.933 790.8 272.533C814.266 315.2 858.933 349.733 908.666 364C916 366.133 932.4 369.733 940 370.933C942.266 371.2 976.4 372 1016 372.533L1088 373.467L1096.8 376.933C1118.27 385.467 1131.47 398.133 1139.07 418C1143.73 430.133 1144.4 448.267 1140.53 460.8C1133.47 484 1115.87 502.267 1093.07 509.867C1084.93 512.667 1082.53 512.667 988.133 512.667C893.866 512.667 891.333 512.8 882.533 515.467C861.2 522 850.133 544.133 858 564.933C861.6 574.667 867.466 581.2 876 585.2L883.2 588.667H986.933C1097.2 588.667 1097.2 588.667 1117.6 582.133C1154 570.533 1186.67 542 1204.27 506.667C1224.67 465.733 1224.13 414.533 1202.67 374.4C1188.53 347.6 1163.6 324.267 1135.73 311.2C1130.4 308.8 1126 306.267 1126 305.733C1126 305.067 1129.87 299.867 1134.53 293.867C1149.87 274.533 1165.07 240.667 1168 219.333C1168.27 217.467 1169.2 212.8 1169.87 208.8C1174.13 186.933 1169.47 149.467 1159.2 123.6C1152.27 106.133 1138.93 82.6667 1133.33 78C1130.27 75.4667 1130.93 74 1135.2 74C1147.87 74 1162.27 64.4 1168.13 52C1176.53 34.1334 1168.53 13.6001 1149.33 4.1334L1142.67 0.800069L1044.67 0.933403C958.133 1.06674 945.2 1.3334 934.666 3.3334ZM998.666 79.2C1024.53 84.5334 1044.53 95.3334 1063.33 114C1081.87 132.533 1090.8 149.467 1094.8 174C1100.8 209.733 1081.6 250.667 1048.13 273.867C998.533 308.133 931.733 306.267 885.066 269.467C847.866 240 834 194.4 849.6 152.267C854.266 139.733 866.533 121.6 876.666 112.133C909.733 81.6 953.466 69.8667 998.666 79.2Z" fill="white"></path>
<path d="M86.6668 61.467C77.7335 66.0003 72.4002 71.3336 68.0002 80.267C64.8002 86.9336 64.4002 88.8003 64.9335 99.2003C65.2002 108 66.0002 112 68.4002 116.667C77.0668 133.2 92.0002 141.067 110.533 138.8C118.933 137.734 130.133 131.467 134.933 125.067L138.267 120.8L130.667 116L123.2 111.067L118.667 115.734C111.333 123.334 97.2002 123.6 90.2668 116.267C73.2002 98.1336 90.6668 66.0003 112.133 76.4003C115.333 78.0003 118.8 80.667 120 82.5336L122.133 85.7336L127.867 81.867C137.6 75.3336 137.867 74.667 131.867 68.5336C123.867 60.4003 117.733 58.0003 104.534 58.0003C95.2002 58.0003 92.2668 58.667 86.6668 61.467Z" fill="white"></path>
<path d="M151.333 98.6668V139.333H179.333H207.467L207.067 130.267L206.667 121.334L188.4 120.934L170 120.534V112.667V104.667H186H202V97.3335V90.0002H186H170V82.0002V74.0002H188H206V66.0002V58.0002H178.667H151.333V98.6668Z" fill="white"></path>
<path d="M224.667 98.6668V139.467L234.4 139.067L244 138.667L244.4 125.6L244.8 112.667H250.4H256L263.733 126L271.466 139.333H281.333C286.8 139.333 291.466 138.933 291.866 138.267C292.133 137.733 288.666 131.067 284 123.333L275.6 109.333L280.8 103.733C283.6 100.667 286.266 96.5335 286.666 94.4001C287.2 92.4001 287.733 89.4668 288 88.0002C289.066 83.0668 285.866 73.4668 281.333 67.8668C274 58.9335 270.8 58.0002 246.133 58.0002H224.667V98.6668ZM264.8 76.4002C267.066 78.4002 267.733 80.2668 267.733 85.0668C267.733 94.0001 266.133 95.3335 254.533 95.3335H244.666V84.6668V74.0002H253.2C259.466 74.0002 262.533 74.6668 264.8 76.4002Z" fill="white"></path>
<path d="M298 66.0002V74.0002H310H322L322.267 106.267L322.667 138.667L331.6 139.067L340.667 139.467L340.933 107.067L341.333 74.6668L353.733 74.2668L366 73.8668V66.0002V58.0002H332H298V66.0002Z" fill="white"></path>
<path d="M380.667 98.6668V139.467L390.4 139.067L400 138.667L400.4 98.2668L400.666 58.0002H390.667H380.667V98.6668Z" fill="white"></path>
<path d="M420.933 98.2668L421.333 138.667L431.066 139.067L440.666 139.467V123.333V107.333H455.333H470V99.3335V91.4668L455.733 91.0668L441.333 90.6668V82.6668V74.6668L459.066 74.2668L476.666 73.8668V66.0002V58.0002H448.666H420.667L420.933 98.2668Z" fill="white"></path>
<path d="M492.667 98.6668V139.333H502H511.333V98.6668V58.0002H502H492.667V98.6668Z" fill="white"></path>
<path d="M531.333 98.6668V139.333H559.333H587.466L587.066 130.267L586.666 121.334L569.066 120.934L551.333 120.534V112.667V104.667H566.666H582V97.3335V90.0002H566.666H551.333V82.0002V74.0002H569.333H587.466L587.066 66.2669L586.666 58.6669L559.066 58.2669L531.333 58.0002V98.6668Z" fill="white"></path>
<path d="M606 98.9334V139.733L626.533 138.933C644.8 138.267 647.733 137.867 654.267 134.8C666.267 129.067 672.8 120.133 675.467 105.6C676.8 98.4001 676.667 95.6001 674.8 87.8667C671.6 75.0668 665.867 67.4668 655.2 62.1334C646.933 58.0001 646.667 58.0001 626.4 58.0001H606V98.9334ZM641.2 75.4667C656.933 79.8667 661.6 103.6 649.2 116C644.8 120.533 644.133 120.667 634.667 120.667H624.667V97.3334V74.0001H630.4C633.467 74.0001 638.4 74.6668 641.2 75.4667Z" fill="white"></path>
<path d="M35.0667 170.667C20.8 174.534 7.46666 186.533 2.53333 199.733C0 206.533 0 212.533 0 467.333V728L3.06667 735.6C7.06666 745.2 19.8667 757.733 29.3333 761.467C35.8667 764 46.6667 764 576.667 764C1025.87 764 1118.8 763.733 1126 762.133C1130.8 761.2 1135.87 760.133 1137.33 759.867C1142.8 758.8 1161.6 752.267 1167.33 749.333C1182.4 741.733 1197.73 727.067 1204.93 713.467C1213.07 697.733 1215.33 684.133 1215.33 649.6C1215.33 633.333 1215.87 619.333 1216.4 618.533C1216.93 617.867 1219.73 616.133 1222.67 614.667C1233.73 609.6 1245.73 600.533 1257.47 588.4C1274.8 570.533 1281.73 554.8 1285.87 524C1286.93 516.8 1287.33 463.6 1287.33 360.8C1287.33 190.667 1287.87 200.667 1278 187.733C1272.93 180.933 1262.93 173.6 1255.33 171.067C1252.67 170.267 1238.93 169.334 1223.73 169.067L1196.67 168.534V179.6C1196.67 185.733 1196.27 192 1195.87 193.6L1195.07 196.667H1221.73H1248.53L1253.87 201.733C1257.87 205.467 1259.33 208 1260 212.667C1260.4 216 1260.67 284.667 1260.4 365.333C1260 499.867 1259.73 512.8 1257.6 521.867C1251.6 547.067 1245.2 560 1231.6 574.133C1222 584.267 1210.93 591.467 1198.93 595.333C1189.6 598.267 1189.47 599.067 1188.53 644C1187.87 684 1187.87 684 1184 693.867C1181.07 701.467 1178.27 705.867 1171.87 712.667C1163.07 722 1155.87 726.267 1140.67 731.2C1119.33 738.267 1144.67 738 572 738H41.0667L36.5333 734.933C34 733.333 30.6667 729.333 28.9333 726L26 720.133V466.8V213.467L28.8 207.867C30.2667 204.667 33.4667 200.933 35.8667 199.333C40.2667 196.667 40.4 196.667 394.533 196.667H748.666V182.667V168.667L395.067 168.8C109.2 168.934 40.1333 169.2 35.0667 170.667Z" fill="white"></path>
<path d="M125.6 252.8C103.333 255.2 85.4668 271.866 76.6668 298C75.0668 302.8 73.4668 307.866 73.2001 309.333C72.9335 310.8 72.0001 314.933 71.0668 318.666C70.0001 322.933 69.4668 334.533 69.4668 351.333C69.6001 377.733 70.0001 380.266 76.4001 401.333C82.9335 422.8 99.6001 441.2 117.467 446.666C127.733 449.733 146.8 449.333 156.267 445.733C171.333 440 185.333 421.866 190 402C190.933 398 192.267 392.533 192.933 390C193.6 387.466 194.4 374.933 194.933 362.266L195.733 339.333H166.267H136.667V356.666V374H148C156.133 374 159.333 374.533 159.467 375.6C160 382.666 157.467 396.4 154.4 402.666C147.467 416.533 133.333 419.466 122.133 409.2C111.867 400 107.333 382.266 107.333 352C107.467 317.6 113.6 295.6 125.067 288.533C130.933 285.066 140.533 285.2 145.2 288.8C149.067 291.866 154 300.533 154 304.266C154.133 310.133 155.733 310 172.667 303.466C181.733 299.866 189.467 296.266 189.733 295.466C190 294.666 188.4 290 186 285.066C174.267 260 154.8 249.6 125.6 252.8Z" fill="white"></path>
<path d="M210 350.667V446H247.333H284.667V428.667V411.467L265.067 411.067L245.333 410.667L244.933 332.933L244.667 255.333H227.333H210V350.667Z" fill="white"></path>
<path d="M299.466 325.6C299.466 364.4 300 400.533 300.533 406.133C302.933 428.8 313.466 441.067 335.6 447.2C345.733 450 374.133 448.533 383.866 444.667C395.066 440.4 403.333 431.733 407.066 420.667C410 412.267 410 410.533 410 333.733V255.333H392H374.133L373.733 330.267C373.333 415.067 373.866 410.4 362.666 414.8C350.8 419.2 340.666 413.6 337.333 400.667C335.733 394.667 335.333 380.4 335.333 324.267V255.333H317.333H299.333L299.466 325.6Z" fill="white"></path>
<path d="M426 272.667V290H440.667H455.333V368V446H473.333H491.333V368V290H506H520.667V272.667V255.333H473.333H426V272.667Z" fill="white"></path>
<path d="M536.667 350.667V446H574H611.333V428.667V411.467L592.4 411.067L573.333 410.667V389.333V368L589.733 367.6L606 367.2V350V332.8L589.733 332.4L573.333 332V311.333V290.667L591.6 290.267L609.866 289.867L610.266 272.667L610.666 255.333H573.733H536.667V350.667Z" fill="white"></path>
<path d="M627.333 350.667V446H646.133H664.933L664.133 393.6C663.866 364.933 663.333 339.867 663.066 338C662.8 336.133 663.333 334.533 664 334.4C665.466 334.267 666.666 337.067 692.4 402L709.6 445.333L727.066 445.733L744.666 446.133V350.667V255.333H726.533H708.533L708.933 311.333C709.2 352.267 708.933 366.8 707.866 365.6C707.066 364.667 703.6 356.8 700.133 348C696.666 339.2 686.933 314.8 678.266 293.6L662.8 255.333H645.066H627.333V350.667Z" fill="white"></path>
<path d="M868.666 406C836.533 409.467 803.066 426.8 780 451.733C762.8 470.133 751.2 492 744.533 518C741.333 530.8 741.066 533.867 741.333 554.667C741.6 574.4 742.133 579.067 745.2 590.667C759.866 645.467 801.733 685.067 858.666 698.133C865.066 699.6 887.2 700 970.666 700C1067.6 700 1074.93 699.867 1078.93 697.6C1085.87 693.867 1092.53 687.467 1096.4 680.8C1099.6 675.467 1100 673.333 1100 663.333C1099.87 650.267 1097.47 644.133 1089.07 636C1082.93 630.133 1078.93 627.867 1070.93 626C1067.2 625.2 1029.2 624.667 970.4 624.667C876.4 624.533 876 624.533 867.2 621.6C849.6 615.6 835.866 604.667 826.666 589.333C819.6 577.6 816.933 567.333 816.933 552.933C816.933 532.533 823.2 516.933 837.333 502.533C846 493.733 854.4 488.4 865.866 484.133C873.066 481.467 876.533 481.333 972.666 480.667L1072 480L1079.6 476.267C1108.53 462.133 1107.2 420.4 1077.6 407.467C1071.2 404.8 1069.73 404.8 974.266 404.933C920.933 404.933 873.466 405.467 868.666 406Z" fill="white"></path>
<path d="M75.333 587.333V683.333H93.333H111.333L111.6 643.6L112 604L129.066 603.6L146 603.2V586V568.8L129.066 568.4L112 568V547.333V526.666L130.4 526.266L148.666 525.866V508.666V491.333H112H75.333V587.333Z" fill="white"></path>
<path d="M166 587.2V683.333H184.667H203.333V640C203.333 616.133 203.867 596.666 204.533 596.666C205.067 596.666 207.6 601.866 210 608.266C212.267 614.8 216.8 626.933 220 635.333C223.2 643.733 227.867 656.666 230.667 664C233.333 671.333 236 678.666 236.667 680.266C237.867 683.2 238.533 683.333 256.667 683.333C266.933 683.333 275.333 682.8 275.333 682.266C275.333 681.6 272.667 674.266 269.467 665.866C266.267 657.466 260.933 643.466 257.6 634.666C254.267 625.866 249.733 613.6 247.333 607.466L243.067 596.133L246.933 593.466C260 583.866 266.8 572.533 268.8 556.533C273.067 523.066 261.067 502.133 233.333 494.4C229.067 493.2 215.867 492.266 196.4 491.733L166 490.933V587.2ZM225.867 527.066C236.667 535.733 236.8 556.8 226.133 567.466C222.133 571.6 220 572.533 213.733 573.333C209.6 573.866 205.6 573.866 204.8 573.333C203.867 572.8 203.333 563.733 203.333 547.066V521.6L212.4 522.533C219.333 523.2 222.4 524.266 225.867 527.066Z" fill="white"></path>
<path d="M292.667 587.333V683.333H330H367.333V666V648.666H348H328.666V626.666V604.666H345.333H362V587.333V570.133L345.733 569.733L329.333 569.333L328.933 547.6L328.666 526H348H367.333V508.666V491.333H330H292.667V587.333Z" fill="white"></path>
<path d="M388.667 587.333V683.333H426H463.333V666V648.8L444.4 648.4L425.333 648V626.666V605.333L441.733 604.933L458 604.533V587.333V570H442C422.933 570 424.4 572.133 424.933 545.333L425.333 526.666L444.4 526.266L463.333 525.866V508.666V491.333H426H388.667V587.333Z" fill="white"></path>
<path d="M1271.2 613.2C1270.93 613.6 1269.07 614.133 1267.33 614.533C1258.13 616.267 1241.33 630.533 1237.47 639.867C1229.47 658.933 1232.8 677.733 1246.8 692.667C1250 696 1256 700.533 1260.27 702.667C1267.2 706.133 1269.33 706.533 1280.67 706.533C1296 706.533 1303.07 703.6 1313.33 693.333C1324 682.8 1326.67 676 1326.67 660C1326.67 648 1326.27 646 1322.93 639.333C1314 622 1298.8 612.667 1279.2 612.667C1275.07 612.667 1271.47 612.933 1271.2 613.2ZM1296.4 627.2C1307.87 633.067 1316.67 647.067 1316.67 659.2C1316.67 672.8 1308 686.8 1296.27 692.533C1288.93 696.133 1272.13 696.4 1265.6 693.2C1259.6 690.267 1250.13 680.8 1248 675.867C1238.93 654.4 1250.93 629.067 1272.4 624.533C1279.47 623.067 1290.8 624.267 1296.4 627.2Z" fill="white"></path>
<path d="M1262.93 636.267C1262.4 636.667 1262 647.2 1262 659.6V682H1268H1274V674C1274 663.467 1276.67 663.333 1284.67 674C1290.67 681.733 1290.67 681.867 1297.73 681.867C1301.47 682 1304.67 681.6 1304.53 680.933C1304.53 680.4 1301.33 676.133 1297.47 671.467L1290.27 662.8L1294.8 658.667C1302 651.867 1300.93 641.6 1292.67 637.333C1288.67 635.333 1264.67 634.4 1262.93 636.267ZM1282.67 644.933C1288.93 647.733 1285.33 656.667 1277.73 656.667C1274.13 656.667 1274 656.4 1274 650C1274 642.667 1275.6 641.733 1282.67 644.933Z" fill="white"></path>
<path d="M85.2 794C78.9333 794.933 71.7333 799.866 67.0667 806.266C64.5333 810 64 812.266 64 821.333C64 834.133 66.9333 840.133 76.5333 846.133C83.4667 850.666 94.5333 851.466 99.8667 848C102.667 846.133 103.067 846.133 103.867 848C104.4 849.6 106 850 109.6 849.733L114.667 849.333L115.067 834.933L115.467 820.666H104.667H94V825.333C94 829.733 94.2667 830 98.8 830C104.933 830 104.267 832.4 97.4667 835.866C86.6667 841.2 77.3333 834.4 77.4667 821.6C77.7333 808.933 85.7333 802.266 95.8667 806.533C98.5333 807.6 101.067 809.466 101.467 810.666C102.667 813.6 104.667 813.066 109.733 808.8L114.133 805.066L108.8 800.266C102.133 794.266 95.0667 792.4 85.2 794Z" fill="white"></path>
<path d="M445.2 793.866C438.266 795.066 432 799.6 427.2 807.066C424 812.266 423.333 814.533 423.333 822C423.333 829.733 423.866 831.733 427.466 837.066C435.333 849.066 450.133 853.6 460.4 847.333C464.666 844.666 464.666 844.666 464.666 847.333C464.666 849.6 465.6 850 470 850H475.333V835.333V820.666H464.666H454V825.333C454 829.866 454.133 830 459.6 830C464.933 830 465.066 830.133 462.8 832.533C456.133 839.866 445.333 839.466 440 831.6C431.6 819.333 441.2 802.4 454.533 806.133C457.066 806.8 460.133 808.666 461.2 810.266L463.2 812.933L467.866 810C470.533 808.4 472.666 806.4 472.666 805.466C472.666 802.8 464.266 795.6 460.4 794.8C452.933 793.2 450.533 793.066 445.2 793.866Z" fill="white"></path>
<path d="M127.6 821.6L128 849.333H134.667H141.333L141.733 839.066L142.133 828.8L151.733 828.4L161.333 828L161.733 822.266L162.133 816.666H152.133H142V811.333V806H154H166V800V794H146.667H127.333L127.6 821.6Z" fill="white"></path>
<path d="M183.2 798.267C168 810 167.2 830.667 181.466 843.2C187.6 848.667 191.2 850 199.2 850C207.2 850 213.466 847.467 218.533 842.133C222.933 837.6 222.266 835.467 215.066 832.533C211.6 831.067 210.8 831.2 209.466 832.933C207.2 836 202.666 838 198 838C192.8 838 186.133 831.467 185.733 826.133C185.066 814.8 187.466 809.467 194.133 806.8C198.8 804.933 200 804.933 203.866 806.533C206.4 807.6 208.933 809.467 209.733 810.8C210.933 813.067 211.333 812.933 215.866 809.867C218.533 808.133 220.666 806 220.666 805.2C220.666 803.467 214.4 797.6 210.4 795.467C208.8 794.667 203.333 794 198.133 794C189.733 794 188.4 794.4 183.2 798.267Z" fill="white"></path>
<path d="M244 796.533C227.067 807.066 223.6 827.6 236.4 841.066C250.533 856 274.667 851.466 282.533 832.4C285.333 826 285.2 816.4 282.533 810.933C279.733 805.466 273.067 798.266 268.4 795.866C263.067 793.066 248.933 793.466 244 796.533ZM264.4 808.266C274.933 814.8 271.733 835.2 259.867 837.466C252.8 838.8 247.467 835.866 244.4 829.066C240.4 820 243.6 810.133 252 806.533C256.267 804.666 259.467 805.066 264.4 808.266Z" fill="white"></path>
<path d="M326.667 795.6C321.733 798.267 313.867 806.667 311.867 811.2C307.733 821.2 310.933 835.467 319.2 842.667C325.467 848.267 329.733 850 337.6 850C348.667 850 358.8 843.6 362.933 834C365.2 828.4 365.467 816.267 363.333 810.667C361.6 805.867 354.667 798.533 349.733 795.867C345.467 793.6 330.533 793.467 326.667 795.6ZM345.733 807.333C345.867 807.333 347.2 809.333 348.667 811.6C351.867 816.8 352.133 825.867 349.333 831.2C345.333 839.067 332.4 839.867 327.067 832.533C318.4 820.933 328.267 802.4 341.067 806.133C343.467 806.8 345.467 807.333 345.733 807.333Z" fill="white"></path>
<path d="M372.667 822.133V850.133L379.067 849.733L385.333 849.333L385.733 840.266C386.133 831.466 386.133 831.333 389.733 831.333C392.8 831.466 394.266 832.933 398.666 840.399L404 849.333L411.066 849.733C419.6 850.266 419.6 849.599 412.666 837.999L407.466 829.333L410.666 825.999C417.333 818.666 418.266 813.066 414 804.666C409.333 795.466 405.733 794 388.133 794H372.667V822.133ZM400.533 807.866C401.466 808.933 402 811.866 401.733 814.266C401.333 818.666 401.333 818.666 393.733 819.066L386 819.466V812.666V805.999H392.533C396.533 805.999 399.6 806.666 400.533 807.866Z" fill="white"></path>
<path d="M291.6 842.933C292 849.333 292 849.333 297.066 849.733L302 850.133V843.466V836.666H296.533H291.2L291.6 842.933Z" fill="white"></path>
</svg>