<svg id="SVGDoc" class="icon icon-pinterest" xmlns="http://www.w3.org/2000/svg" version="1.1" xmlns:xlink="http://www.w3.org/1999/xlink" xmlns:avocode="https://avocode.com/" viewBox="0 0 37 36"><defs></defs><desc>Generated with Avocode.</desc><g><g clip-path="url(#clip-CEA7967A-8947-4D5C-BC17-42287157BE12+D2C8C26A-9829-4765-82A6-8AB384649526)"><title>Fill 1</title><path d="M18.21985,0c-9.94104,0 -17.99988,8.05908 -17.99988,18c0,7.62549 4.78003,14.14453 11.44031,16.76758c-0.15747,-1.42432 -0.29956,-3.61475 0.06262,-5.16943c0.2771,-1.40479 2.1106,-8.94727 2.1106,-8.94727v0c0,0 -0.53857,-1.07812 -0.53857,-2.65088c0,-2.52441 1.45068,-4.39258 3.25708,-4.39258c1.53564,0 2.27759,1.15283 2.27759,2.53516c0,1.54443 -0.9834,3.85742 -1.49097,5.99316c-0.42395,1.79199 0.89856,3.25293 2.66138,3.25293c3.20361,0 5.66272,-3.38867 5.66272,-8.24268c0,-4.30957 -3.09692,-7.32324 -7.51868,-7.32324c-5.14404,0 -8.14404,3.8418 -8.14404,7.81152c0,1.54736 0.61206,3.20605 1.35571,4.10791c0.14697,0.17822 0.16858,0.33447 0.12488,0.51611c-0.13672,0.56885 -0.48059,1.7417 -0.48059,2.0415c-0.0979,0.3291 -0.28027,0.39941 -0.62134,0.24072c-2.24817,-1.04687 -3.65356,-4.3335 -3.65356,-6.97314c0,-5.67822 4.12524,-10.89258 11.89319,-10.89258c6.24414,0 11.09668,4.44922 11.09668,10.39551c0,6.20361 -3.91138,11.19629 -9.34045,11.19629c-1.82385,0 -3.53857,-0.94775 -4.12549,-2.06689c0,0 -0.90271,3.43652 -1.12146,4.27881c-0.40649,1.52148 -1.50342,3.52148 -2.23718,4.71875c1.68433,0.52148 3.474,0.80273 5.32947,0.80273c9.94141,0 18.00012,-8.05859 18.00012,-18c0,-9.94092 -8.05872,-18 -18.00012,-18z" fill="currentcolor" fill-opacity="1"></path></g></g></svg>