<svg data-name="Layer 1" xmlns="http://www.w3.org/2000/svg" viewBox="0 0 90.02 66.02"><path d="M99.42,61.46H37.85C40.14,48,46.93,35.76,55.25,25,51.06,26.91,45.71,32.66,41,39.2c-.08.19-.18.36-.27.54C42,37,43,33.84,42.43,31c-.37-2-5.06-2.17-8.31,5.44-1.73-3.87-4.34-7.87-8-10-2.06-1.23-6.67.2-1.87,11.11,0,0-2.22,3.84.31,6.25,3.7,3.54,7.08,2.09,11.28,2.61a1.38,1.38,0,0,0-.08,1.23s0-.05-.05-.08a63.48,63.48,0,0,0-4.07,8.39c-2.31-6-7.74-11-14.84-13.67,5.71,6.92,9.24,12.62,10.7,19.25h-14V75H99.42Zm-73,2.82-.2.49L23,72.89H21.64l-3.32-8.61h1.77l2.25,6.24,2.34-6.24Zm8.34-26.66c2.11-5.64,5.61-5.78,5.78-3.73.37,4.36-2.93,9.83-3.7,11a35.85,35.85,0,0,0-2.13-7.23l0-.08m1.13,8.09c-2.48-1.08-5.56-.57-7.93-1.68-3.79-1.77-1.32-5.75-1.32-5.75-3.3-7.43-.65-8.24.9-7.3,6.11,3.71,9.25,15.11,8.35,14.73m.76,27.18H30.69V64.28h5.72v1.49H32.25v2h3.87v1.49H32.25V71.4h4.36v1.49Zm11.42,0H46.12l-2.07-3.6h-.88v3.59H41.61V64.27h3.1a3.78,3.78,0,0,1,1.27.21l.16,0a2.25,2.25,0,0,1,.75.51l.13.14a2.49,2.49,0,0,1,.37.67.75.75,0,0,1,0,.16,2.8,2.8,0,0,1,.11.76,2.44,2.44,0,0,1-.15.82.6.6,0,0,1-.06.11,2.13,2.13,0,0,1-.36.59c0,.06-.13.11-.19.17a2.58,2.58,0,0,1-.45.35,2.79,2.79,0,0,1-.66.28h0L48,72.89Zm6.05,0H52.53V64.28h1.56Zm11.1-7.12h-4v2.1h3.74v1.49H61.17v3.53H59.61V64.28h5.58Zm6.45,7.12H70.08V64.28h1.56Zm11.43,0H77.14V64.28h5.72v1.49H78.7v2h3.87v1.49H78.7V71.4h4.36v1.49Zm12.26-3.73a4.2,4.2,0,0,1-1,2.3s0,.06,0,.08a4.45,4.45,0,0,1-1.15.77,3.7,3.7,0,0,1-.33.21,5.26,5.26,0,0,1-2,.36H87.85V64.28h3.08a5.25,5.25,0,0,1,1.88.35,4.48,4.48,0,0,1,.44.2,3.52,3.52,0,0,1,.94.69,3.57,3.57,0,0,1,.28.27,3.88,3.88,0,0,1,.63,1.14c.05.14.08.27.12.41a4.84,4.84,0,0,1,.19,1.24h0a1.93,1.93,0,0,1-.08.58" transform="translate(-11.47 -20.99)"></path><path d="M93.67,67.68a2.64,2.64,0,0,0-.4-.83l-.06-.08a2.51,2.51,0,0,0-.82-.67l-.12,0a3.37,3.37,0,0,0-1.42-.29H89.42v5.63h1.17a4.37,4.37,0,0,0,1.18-.17,3.15,3.15,0,0,0,.59-.27,3,3,0,0,0,.44-.23,2.43,2.43,0,0,0,.47-.54,1.46,1.46,0,0,0,.26-.34,2.87,2.87,0,0,0,.28-1.24s0,0,0,0a3.58,3.58,0,0,0-.11-.81s0-.05,0-.08" transform="translate(-11.47 -20.99)"></path><path d="M45.92,66.79a1.14,1.14,0,0,0-.11-.52.75.75,0,0,0-.14-.17.81.81,0,0,0-.16-.16,1.12,1.12,0,0,0-.22-.09,2.14,2.14,0,0,0-.27-.09,3,3,0,0,0-.55-.05h-1.3v2.17h1.25a2.64,2.64,0,0,0,.6-.06,2,2,0,0,0,.26-.09,1.22,1.22,0,0,0,.23-.1.81.81,0,0,0,.16-.16,1.15,1.15,0,0,0,.14-.17,1.06,1.06,0,0,0,.11-.5" transform="translate(-11.47 -20.99)"></path><path d="M17,78.8a1.32,1.32,0,0,0-.51-.3,1.91,1.91,0,0,0-1.5.12,1.28,1.28,0,0,0-.49.46v-.57h-.89v4.36h.89V80.63a1.46,1.46,0,0,1,0-.22,1.48,1.48,0,0,1,.22-.69s0-.11.08-.15a1,1,0,0,1,.13-.09,1.15,1.15,0,0,1,.51-.21,1,1,0,0,1,.17,0,1.38,1.38,0,0,1,.2,0,1.08,1.08,0,0,1,.3.11.7.7,0,0,1,.16.1,1.1,1.1,0,0,1,.09.14,1.18,1.18,0,0,1,.16.47,1.33,1.33,0,0,1,0,.21v2.57h.89V80.08a1.9,1.9,0,0,0-.13-.75A1.25,1.25,0,0,0,17,78.8" transform="translate(-11.47 -20.99)"></path><path d="M22.81,79.07a2.36,2.36,0,0,0-2.55-.49,2.33,2.33,0,0,0-.74.49,2.36,2.36,0,0,0-.49.72,2.18,2.18,0,0,0-.18.89,2.26,2.26,0,0,0,.18.9,2.29,2.29,0,0,0,.49.73,2.39,2.39,0,0,0,.74.49,2.39,2.39,0,0,0,1.82,0,2.18,2.18,0,0,0,.73-.49,2.29,2.29,0,0,0,.49-.73,2.26,2.26,0,0,0,.18-.9,2.18,2.18,0,0,0-.18-.89,2.36,2.36,0,0,0-.49-.72m-.37,2.2a1.4,1.4,0,0,1-.27.46,1.5,1.5,0,0,1-.43.3,1.53,1.53,0,0,1-1.14,0,1.19,1.19,0,0,1-.43-.3,1.17,1.17,0,0,1-.27-.46,1.87,1.87,0,0,1-.1-.59,1.63,1.63,0,0,1,.1-.59,1.4,1.4,0,0,1,.27-.46,1.5,1.5,0,0,1,.43-.3,1.53,1.53,0,0,1,1.14,0,1.19,1.19,0,0,1,.43.3,1.17,1.17,0,0,1,.27.46,1.87,1.87,0,0,1,.1.59,2.08,2.08,0,0,1-.1.59" transform="translate(-11.47 -20.99)"></path><path d="M28.28,78.8a1.46,1.46,0,0,0-.51-.3,1.76,1.76,0,0,0-.6-.1,1.7,1.7,0,0,0-.89.22,1.28,1.28,0,0,0-.49.46v-.57H24.9v4.36h.89V80.63a1.66,1.66,0,0,1,0-.22,1.48,1.48,0,0,1,.22-.69s.05-.11.08-.15a1,1,0,0,1,.13-.09,1.15,1.15,0,0,1,.51-.21,1,1,0,0,1,.17,0,1.08,1.08,0,0,1,.19,0,.92.92,0,0,1,.29.11.54.54,0,0,1,.16.1,1.1,1.1,0,0,1,.09.14,1.18,1.18,0,0,1,.16.47,1.33,1.33,0,0,1,0,.21v2.57h.89V80.08a1.9,1.9,0,0,0-.13-.75,1.41,1.41,0,0,0-.33-.53" transform="translate(-11.47 -20.99)"></path><path d="M34,79.07a1.52,1.52,0,0,0-.61-.47,2,2,0,0,0-.86-.19,2.24,2.24,0,0,0-.91.18,2.06,2.06,0,0,0-.7.49,2.36,2.36,0,0,0-.45.73,2.64,2.64,0,0,0-.15.89,2.17,2.17,0,0,0,.17.89,2.12,2.12,0,0,0,.46.71,2,2,0,0,0,.7.47,2.35,2.35,0,0,0,.89.17,2,2,0,0,0,.86-.19,1.46,1.46,0,0,0,.61-.52v.54a1.93,1.93,0,0,1-.07.53,1.26,1.26,0,0,1-.24.46,1.36,1.36,0,0,1-.46.33,1.91,1.91,0,0,1-.73.13,1.94,1.94,0,0,1-.82-.17,2.29,2.29,0,0,1-.67-.51l0,0-.6.75,0,0a2.75,2.75,0,0,0,1,.61,3.74,3.74,0,0,0,1.14.17,3,3,0,0,0,1-.16,2.36,2.36,0,0,0,.75-.46,2,2,0,0,0,.48-.71,2.4,2.4,0,0,0,.17-.9V78.54H34v.53Zm-.36,2.63a1.35,1.35,0,0,1-1,.38,1.33,1.33,0,0,1-1-.38,1.42,1.42,0,0,1-.37-1,1.63,1.63,0,0,1,.1-.59,1.24,1.24,0,0,1,.27-.46,1.38,1.38,0,0,1,.43-.3,1.53,1.53,0,0,1,1.14,0,1.19,1.19,0,0,1,.43.3,1.17,1.17,0,0,1,.27.46,1.87,1.87,0,0,1,.1.59,1.46,1.46,0,0,1-.37,1" transform="translate(-11.47 -20.99)"></path><path d="M42.89,79a1.37,1.37,0,0,0-.51-.44,1.8,1.8,0,0,0-.83-.17,1.78,1.78,0,0,0-.79.2,1.37,1.37,0,0,0-.57.55,1.6,1.6,0,0,0-.51-.55,1.51,1.51,0,0,0-.82-.2,1.53,1.53,0,0,0-.54.09,2.46,2.46,0,0,0-.43.21,1.56,1.56,0,0,0-.3.26.47.47,0,0,0-.09.12V78.5h-.84v4.36h.89V80.6a1.6,1.6,0,0,1,0-.23,1.47,1.47,0,0,1,.21-.66s.05-.11.08-.15a.61.61,0,0,1,.14-.1.91.91,0,0,1,.44-.19,1,1,0,0,1,.17,0,.83.83,0,0,1,.45.1.75.75,0,0,1,.26.27,1.29,1.29,0,0,1,.12.42,4.73,4.73,0,0,1,0,.56v2.28h.89V80.49a1.53,1.53,0,0,1,.25-.91.91.91,0,0,1,.81-.34.87.87,0,0,1,.46.1.84.84,0,0,1,.27.26,1.14,1.14,0,0,1,.13.38,3.44,3.44,0,0,1,0,.46v2.42h.89V80.33a3.35,3.35,0,0,0-.07-.71,1.64,1.64,0,0,0-.25-.61" transform="translate(-11.47 -20.99)"></path><path d="M48.58,79.07a2.4,2.4,0,0,0-.73-.49,2.36,2.36,0,0,0-2.56.49,2.36,2.36,0,0,0-.49.72,2.18,2.18,0,0,0-.18.89,2.26,2.26,0,0,0,.18.9,2.29,2.29,0,0,0,.49.73,2.46,2.46,0,0,0,.73.49,2.39,2.39,0,0,0,1.82,0,2.18,2.18,0,0,0,.73-.49,2.29,2.29,0,0,0,.49-.73,2.26,2.26,0,0,0,.18-.9,2.3,2.3,0,0,0-.66-1.61m-.37,2.2a1.6,1.6,0,0,1-.27.46,1.5,1.5,0,0,1-.43.3,1.53,1.53,0,0,1-1.14,0,1.19,1.19,0,0,1-.43-.3,1.17,1.17,0,0,1-.27-.46,1.87,1.87,0,0,1-.1-.59,1.63,1.63,0,0,1,.1-.59,1.4,1.4,0,0,1,.27-.46,1.5,1.5,0,0,1,.43-.3,1.53,1.53,0,0,1,1.14,0,1.19,1.19,0,0,1,.43.3,1.17,1.17,0,0,1,.27.46,1.87,1.87,0,0,1,.1.59,1.78,1.78,0,0,1-.1.59" transform="translate(-11.47 -20.99)"></path><path d="M54.8,79.06a2.06,2.06,0,0,0-.7-.49,2.24,2.24,0,0,0-.91-.18,2.19,2.19,0,0,0-.86.19,1.69,1.69,0,0,0-.61.47v-.56h-.89v6.9h.89v-3.1a1.56,1.56,0,0,0,.59.47,2.06,2.06,0,0,0,.88.2,2.42,2.42,0,0,0,.91-.17,2.18,2.18,0,0,0,.7-.48,2.25,2.25,0,0,0,.45-.73,2.66,2.66,0,0,0,.16-.9,2.37,2.37,0,0,0-.61-1.62m-.44,2.21a1.6,1.6,0,0,1-.27.46,1.5,1.5,0,0,1-.43.3,1.53,1.53,0,0,1-1.14,0,1.19,1.19,0,0,1-.43-.3,1.17,1.17,0,0,1-.27-.46,1.87,1.87,0,0,1-.1-.59,1.63,1.63,0,0,1,.1-.59,1.24,1.24,0,0,1,.27-.46,1.5,1.5,0,0,1,.43-.3,1.53,1.53,0,0,1,1.14,0,1.19,1.19,0,0,1,.43.3,1.17,1.17,0,0,1,.27.46,1.87,1.87,0,0,1,.1.59,1.82,1.82,0,0,1-.1.59" transform="translate(-11.47 -20.99)"></path><path d="M59.09,78.46l-.13,0h0l-.13,0c-.09,0-.18,0-.27,0a1.61,1.61,0,0,0-.38.16,1.48,1.48,0,0,0-.31.25,1.84,1.84,0,0,0-.17.22v-.58H56.8v4.36h.89V80.68a1.39,1.39,0,0,1,.31-1,1.17,1.17,0,0,1,.88-.32l.19,0,.2,0h0l0-1h0c-.07,0-.16,0-.24,0" transform="translate(-11.47 -20.99)"></path><path d="M64,79.07a2.36,2.36,0,0,0-2.55-.49,2.18,2.18,0,0,0-.73.49,2.36,2.36,0,0,0-.49.72,2.18,2.18,0,0,0-.18.89,2.26,2.26,0,0,0,.18.9,2.29,2.29,0,0,0,.49.73,2.46,2.46,0,0,0,.73.49,2.39,2.39,0,0,0,1.82,0,2.18,2.18,0,0,0,.73-.49,2.29,2.29,0,0,0,.49-.73,2.26,2.26,0,0,0,.18-.9A2.25,2.25,0,0,0,64,79.07m-.37,2.2a1.4,1.4,0,0,1-.27.46,1.5,1.5,0,0,1-.43.3,1.53,1.53,0,0,1-1.14,0,1.19,1.19,0,0,1-.43-.3,1.17,1.17,0,0,1-.27-.46,1.87,1.87,0,0,1-.1-.59,1.63,1.63,0,0,1,.1-.59,1.6,1.6,0,0,1,.27-.46,1.5,1.5,0,0,1,.43-.3,1.53,1.53,0,0,1,1.14,0,1.19,1.19,0,0,1,.43.3,1.17,1.17,0,0,1,.27.46,1.87,1.87,0,0,1,.1.59,1.63,1.63,0,0,1-.1.59" transform="translate(-11.47 -20.99)"></path><path d="M66.13,83.4A1.22,1.22,0,0,1,66,84a.46.46,0,0,1-.43.19l-.16,0-.16,0-.05,0-.1.83h0a1.31,1.31,0,0,0,.27.06l.27,0a1.36,1.36,0,0,0,.78-.19,1.11,1.11,0,0,0,.4-.44,1.68,1.68,0,0,0,.15-.53,3.56,3.56,0,0,0,0-.43V78.5h-.89v4.9Z" transform="translate(-11.47 -20.99)"></path><path d="M66.58,76.38a.61.61,0,0,0-.45.19.64.64,0,0,0-.19.45.61.61,0,0,0,.19.45.62.62,0,0,0,.45.19.61.61,0,0,0,.45-.19.64.64,0,0,0,.19-.45.65.65,0,0,0-.64-.64" transform="translate(-11.47 -20.99)"></path><path d="M72.47,79.13a1.82,1.82,0,0,0-.66-.53,2.12,2.12,0,0,0-1-.2,2.23,2.23,0,0,0-.9.18,2.34,2.34,0,0,0-.71.48,2.13,2.13,0,0,0-.47.73,2.44,2.44,0,0,0-.17.9,2.62,2.62,0,0,0,.15.9,2,2,0,0,0,.45.73,2,2,0,0,0,.71.48,2.56,2.56,0,0,0,2.86-.72l0,0-.67-.52,0,0a2.15,2.15,0,0,1-.5.46,1.22,1.22,0,0,1-.64.17,1.6,1.6,0,0,1-.53-.09,1.41,1.41,0,0,1-.45-.25,1.14,1.14,0,0,1-.43-.83H73V80.7a2.92,2.92,0,0,0-.12-.83,2.24,2.24,0,0,0-.37-.74m-3,1.17a.88.88,0,0,1,.09-.38,1.4,1.4,0,0,1,.26-.39,1.2,1.2,0,0,1,.41-.28,1.32,1.32,0,0,1,.53-.11c.07,0,.12,0,.19,0a1.12,1.12,0,0,1,.57.22s.1,0,.13.09a1,1,0,0,1,.1.17,1.15,1.15,0,0,1,.17.49,1.1,1.1,0,0,1,0,.16Z" transform="translate(-11.47 -20.99)"></path><path d="M75.21,79.69a1,1,0,0,1,.4-.32,1.26,1.26,0,0,1,.57-.12,1.31,1.31,0,0,1,.58.12,1.48,1.48,0,0,1,.46.35l0,0,.67-.61,0,0a2,2,0,0,0-.76-.52,2.58,2.58,0,0,0-.91-.17,2.52,2.52,0,0,0-.93.17,2.09,2.09,0,0,0-.72.47,2,2,0,0,0-.46.73,2.6,2.6,0,0,0,0,1.85,2.09,2.09,0,0,0,.47.72,2.07,2.07,0,0,0,.72.46,2.51,2.51,0,0,0,.92.17,2.44,2.44,0,0,0,.9-.16,1.76,1.76,0,0,0,.75-.52l0,0-.63-.63,0,0a1.45,1.45,0,0,1-.44.35,1.26,1.26,0,0,1-.57.12,1.38,1.38,0,0,1-.55-.11,1.25,1.25,0,0,1-.42-.3,1.29,1.29,0,0,1-.27-.45,1.45,1.45,0,0,1-.1-.55,1.77,1.77,0,0,1,.09-.56,1.49,1.49,0,0,1,.24-.49" transform="translate(-11.47 -20.99)"></path><path d="M81,82.11l-.29,0a.57.57,0,0,1-.33-.08.44.44,0,0,1-.17-.21.94.94,0,0,1-.07-.3c0-.11,0-.23,0-.36v-1.9h1.17v-.78H80.16v-1.2h-.89v1.2h-.94v.78h.94v2.19c0,.17,0,.35,0,.52a1.08,1.08,0,0,0,.15.48.89.89,0,0,0,.39.35,1.71,1.71,0,0,0,.75.13l.36,0a1,1,0,0,0,.39-.12h0V82l-.06,0a.56.56,0,0,1-.26.11" transform="translate(-11.47 -20.99)"></path><path d="M83.43,81.65a.61.61,0,0,0-.45.19.64.64,0,0,0-.19.45.61.61,0,0,0,.19.45.62.62,0,0,0,.45.19.61.61,0,0,0,.45-.19.6.6,0,0,0,.19-.45.61.61,0,0,0-.19-.45.6.6,0,0,0-.45-.19" transform="translate(-11.47 -20.99)"></path><path d="M89.44,79.07a2.36,2.36,0,0,0-2.55-.49,2.33,2.33,0,0,0-.74.49,2.36,2.36,0,0,0-.49.72,2.18,2.18,0,0,0-.18.89,2.26,2.26,0,0,0,.18.9,2.29,2.29,0,0,0,.49.73,2.39,2.39,0,0,0,.74.49,2.34,2.34,0,0,0,.91.18,2.31,2.31,0,0,0,.91-.18,2.18,2.18,0,0,0,.73-.49,2.29,2.29,0,0,0,.49-.73,2.26,2.26,0,0,0,.18-.9,2.18,2.18,0,0,0-.18-.89,2.36,2.36,0,0,0-.49-.72m-.37,2.2a1.4,1.4,0,0,1-.27.46,1.5,1.5,0,0,1-.43.3,1.53,1.53,0,0,1-1.14,0,1.19,1.19,0,0,1-.43-.3,1.17,1.17,0,0,1-.27-.46,1.87,1.87,0,0,1-.1-.59,1.63,1.63,0,0,1,.1-.59,1.6,1.6,0,0,1,.27-.46,1.5,1.5,0,0,1,.43-.3,1.53,1.53,0,0,1,1.14,0,1.19,1.19,0,0,1,.43.3,1.17,1.17,0,0,1,.27.46,1.87,1.87,0,0,1,.1.59,1.82,1.82,0,0,1-.1.59" transform="translate(-11.47 -20.99)"></path><path d="M93.81,78.46l-.13,0h0l-.13,0c-.09,0-.18,0-.27,0a1.61,1.61,0,0,0-.38.16,1.48,1.48,0,0,0-.31.25,1.84,1.84,0,0,0-.17.22v-.58h-.89v4.36h.89V80.68a1.39,1.39,0,0,1,.31-1,1.17,1.17,0,0,1,.88-.32l.19,0,.2,0H94l0-1h0c-.07,0-.16,0-.24,0" transform="translate(-11.47 -20.99)"></path><path d="M98.6,79.07A1.52,1.52,0,0,0,98,78.6a2,2,0,0,0-.86-.19,2.24,2.24,0,0,0-.91.18,2.06,2.06,0,0,0-.7.49,2.36,2.36,0,0,0-.45.73,2.65,2.65,0,0,0-.16.89,2.35,2.35,0,0,0,.16.89,2.12,2.12,0,0,0,.46.71,2,2,0,0,0,.7.47,2.35,2.35,0,0,0,.89.17,2,2,0,0,0,.86-.19,1.46,1.46,0,0,0,.61-.52v.54a1.93,1.93,0,0,1-.07.53,1.26,1.26,0,0,1-.24.46,1.36,1.36,0,0,1-.46.33,1.91,1.91,0,0,1-.73.13,1.94,1.94,0,0,1-.82-.17,2.29,2.29,0,0,1-.67-.51l0,0-.6.75,0,0a2.8,2.8,0,0,0,1,.61,3.69,3.69,0,0,0,1.14.17,3,3,0,0,0,1-.16,2.36,2.36,0,0,0,.75-.46,2,2,0,0,0,.48-.71,2.4,2.4,0,0,0,.17-.9V78.54H98.6Zm-.37,2.63a1.51,1.51,0,0,1-2,0,1.42,1.42,0,0,1-.37-1,1.63,1.63,0,0,1,.1-.59,1.24,1.24,0,0,1,.27-.46,1.5,1.5,0,0,1,.43-.3,1.53,1.53,0,0,1,1.14,0,1.19,1.19,0,0,1,.43.3,1.17,1.17,0,0,1,.27.46,1.63,1.63,0,0,1,.1.59,1.38,1.38,0,0,1-.37,1" transform="translate(-11.47 -20.99)"></path><path d="M63.49,50H62.08v2.52h1.41c.85,0,1.7-.2,1.7-1.26S64.34,50,63.49,50" transform="translate(-11.47 -20.99)"></path><path d="M73.58,52.41a1.83,1.83,0,1,0,1.74,1.83,1.69,1.69,0,0,0-1.74-1.83" transform="translate(-11.47 -20.99)"></path><path d="M78.29,33.62a3,3,0,0,0,3.08-3.19,3.08,3.08,0,1,0-6.16,0,3,3,0,0,0,3.08,3.19" transform="translate(-11.47 -20.99)"></path><path d="M82.8,52.27a1.63,1.63,0,0,0-1.64,1.53h3.17a1.43,1.43,0,0,0-1.53-1.53" transform="translate(-11.47 -20.99)"></path><path d="M90.85,39.26a3.2,3.2,0,1,0,3.08,3.19,3,3,0,0,0-3.08-3.19" transform="translate(-11.47 -20.99)"></path><path d="M99.42,23.07h-43V60.82h43Zm-13.83,2.4h3l4.22,6.89h0V25.47H95v9.92H92.14l-4.33-7.06h0v7.06H85.59Zm-7.3-.25a5,5,0,0,1,5.35,5.21,5.35,5.35,0,0,1-10.7,0,5,5,0,0,1,5.35-5.21m-16.7.25h3l4.22,6.89h0V25.47H71v9.92H68.13L63.8,28.33h0v7.06H61.58V25.47Zm4.33,11.78a5.59,5.59,0,0,1,4,1.28l-1.54,1.68a3,3,0,0,0-2.41-.94,3.19,3.19,0,0,0,0,6.38A4.35,4.35,0,0,0,68,45.16V43.55H66.2v-2h3.88v5.18a8.91,8.91,0,0,1-4.16.95,5.21,5.21,0,1,1,0-10.41M63.79,53.4H62.08v3.45H61V49h2.78c2,0,2.53,1.21,2.53,2.19s-.51,2.19-2.53,2.19m6.56-.79a2.27,2.27,0,0,0-.49-.08c-1,0-1.52.53-1.52,1.68v2.63h-1V51.6h1v.81h0A1.81,1.81,0,0,1,70,51.47a1.33,1.33,0,0,1,.45.07ZM73.58,57a2.75,2.75,0,1,1,2.82-2.75A2.77,2.77,0,0,1,73.58,57m5.12.62c0,.54,0,1.9-1.62,1.9a1.8,1.8,0,0,1-.65-.1l.11-.92a1.43,1.43,0,0,0,.41.09c.55,0,.74-.35.74-1V51.6h1v6Zm-.51-7.14a.73.73,0,1,1,.74-.73.74.74,0,0,1-.74.73m-.85-3-2.51-7.61h0v7.61H72.61V37.5h3.31L78.2,44h0l2.3-6.47h3.29v9.92H81.63V39.81h0L79,47.42Zm8.07,7.17H81.17A1.66,1.66,0,0,0,83,56.12a1.82,1.82,0,0,0,1.45-.79l.76.58A2.78,2.78,0,0,1,82.82,57a2.61,2.61,0,0,1-2.72-2.75,2.67,2.67,0,0,1,2.74-2.75,2.51,2.51,0,0,1,2.58,2.76v.35Zm3.71,1.46a1.59,1.59,0,0,0,1.29-.59l.71.71a2.77,2.77,0,1,1-2-4.68,2.73,2.73,0,0,1,2,.83l-.76.68a1.76,1.76,0,1,0-1.26,3m6.47.76a2.33,2.33,0,0,1-.9.18c-1.55,0-1.57-.94-1.57-1.78V52.48H92v-.86h1.16V50.15h1v1.47h1.44v.86H94.13v2.38c0,.59,0,1.21.76,1.21a1.42,1.42,0,0,0,.71-.15v.89Zm-4.74-9.14a5.21,5.21,0,1,1,5.35-5.21,5,5,0,0,1-5.35,5.21" transform="translate(-11.47 -20.99)"></path><path d="M11.47,87h90V21h-90Zm89.72-.31H11.79V21.3h89.4Z" transform="translate(-11.47 -20.99)"></path></svg>