<svg id="SVGDoc" class="icon icon-twitter" xmlns="http://www.w3.org/2000/svg" version="1.1" xmlns:xlink="http://www.w3.org/1999/xlink" xmlns:avocode="https://avocode.com/" viewBox="0 0 37 36"><defs></defs><desc>Generated with Avocode.</desc><g><g clip-path="url(#clip-CEA7967A-8947-4D5C-BC17-42287157BE12+DB763D8B-3B5B-4CAF-ACA9-2971119A817E)"><title>Fill 1</title><path d="M36.51001,18c0,9.93457 -8.06555,18 -18,18c-9.93445,0 -18,-8.06543 -18,-18c0,-9.93457 8.06555,-18 18,-18c9.93445,0 18,8.06543 18,18zM15.33948,27.57373c7.96533,0 12.32043,-6.57373 12.32043,-12.32031c0,-0.18896 0,-0.37744 -0.00891,-0.55713c0.84412,-0.61035 1.58044,-1.37354 2.16406,-2.24463c-0.81506,0.34082 -1.60742,0.54834 -2.48743,0.68213c0.89807,-0.53857 1.58057,-1.38281 1.90381,-2.39746c-0.83521,0.49414 -1.76001,0.85303 -2.7478,1.05078c-0.79028,-0.84424 -1.91272,-1.36523 -3.16101,-1.36523c-2.38867,0 -4.32263,1.93994 -4.32263,4.32861c0,0.34131 0,0.67334 0.11108,0.98779c-3.60095,-0.17969 -6.78882,-1.90381 -8.92603,-4.52588c-0.36816,0.63721 -0.58362,1.38281 -0.58362,2.17285c0,1.49951 0.76331,2.82861 1.93066,3.61475c-0.70947,0 -1.37402,-0.229 -1.95764,-0.55225v0.05371c0,2.10107 1.4906,3.84326 3.42554,4.24756c-0.30945,0.09863 -0.69568,0.15234 -1.09082,0.15234c-0.27832,0 -0.54773,-0.02686 -0.81702,-0.08057c0.54761,1.72412 2.14612,2.97217 4.04089,3.0083c-1.48169,1.1709 -3.34949,1.84961 -5.37903,1.84961c-0.35022,0 -0.69141,-0.01807 -1.03271,-0.0625c1.8949,1.23877 4.17566,1.95752 6.61816,1.95752z" fill="currentcolor" fill-opacity="1"></path></g></g></svg>