<svg width="150" height="100" viewBox="0 0 150 100" fill="none" xmlns="http://www.w3.org/2000/svg">
<path d="M90.6618 100C73.8971 100 59.5588 93.5714 46.1029 82.1429C40.8088 77.8571 35.7353 72.5 30.6618 67.5C29.3382 66.0714 28.6765 66.4286 27.7941 68.5714C23.1618 80.7143 17.2059 90 9.26471 96.4286C7.72059 97.5 6.17647 98.9286 4.41177 99.6429C3.52941 100 1.9853 100 1.54413 98.9286C1.10295 97.8571 1.10295 95.7143 1.32354 94.2857C2.64706 87.5 4.41177 81.0714 5.95588 74.2857C8.82353 60 9.4853 45.7143 6.61765 31.0714C5.07353 22.8571 3.08824 15 1.54413 7.14286C1.32354 5.71429 1.10295 3.21428 1.76471 2.14285C2.20588 1.07143 3.97059 1.07144 4.85294 1.42858C14.7794 6.78571 22.0588 17.1429 27.7941 31.4286C29.1176 35 29.1176 35 31.3235 32.5C40.3676 22.8571 50.0735 14.2857 60.4412 8.57143C73.4559 1.42858 86.6912 -1.42857 100.368 1.78571C105.221 2.85714 109.853 4.64286 114.706 6.42857C116.691 7.14286 116.691 7.85714 115.809 10.3571C106.103 37.1429 106.324 63.9286 116.029 90.7143C116.912 93.2143 116.471 93.9286 115.147 94.2857C106.544 98.2143 97.9412 100 90.6618 100Z" fill="#005099"></path>
<path d="M112.5 50.7143C112.5 36.4286 114.044 23.5714 116.691 10.7143C117.132 8.57143 117.574 7.85714 119.118 8.92857C131.25 16.7857 141.397 28.5714 148.015 47.1429C148.897 49.2857 148.897 51.4286 148.015 53.9286C142.5 68.9286 134.779 79.6429 125.294 87.5C123.309 89.2857 120.882 90.7143 118.897 92.1429C117.794 92.8571 117.132 92.8571 116.691 90.7143C114.265 77.1429 112.5 63.5714 112.5 50.7143ZM128.382 49.2857C130.588 49.2857 132.353 46.4286 132.353 42.5C132.353 38.9286 130.588 36.0714 128.382 36.0714C126.176 36.0714 124.191 39.2857 124.191 42.5C124.191 46.4286 126.176 49.2857 128.382 49.2857Z" fill="#005099"></path>
</svg>