<svg xmlns="http://www.w3.org/2000/svg" width="55" height="54" viewBox="0 0 55 54" fill="none">
<path d="M37.2 49.3C36.7 44.8 36.1 40.3 34.1 36.1C35.6 35.7 37.1 35.5 38.3 34.9C39.8 34.2 41.2 33.3 42.4 32.3C43.7 31.2 44.3 29.7 44.1 27.8C43.7 23.2 43.5 18.6 43.3 14C43.2 12 44.8 8.8 46.3 7.5C46.3 7.9 46.4 8.1 46.4 8.4C46.3 13.3 46.2 18.2 46.1 23.1C46.1 23.5 46 23.8 46.1 24.2C46.2 24.5 46.4 24.8 46.6 25.2C46.8 24.9 47.1 24.6 47.2 24.2C47.3 22.4 47.3 20.6 47.3 18.8C47.4 14.9 47.5 11.1 47.5 7.2C47.5 4.9 48.8 3.6 50.3 1.9C50.4 2.6 50.4 3 50.4 3.4C50.4 11.3 49.9 19.1 48.8 26.9C48.7 27.7 48.7 28.4 48.6 29.2C48.8 29.2 49 29.3 49.2 29.3C49.4 28.8 49.6 28.3 49.7 27.8C50.2 22.3 50.8 16.9 51.2 11.4C51.4 8.3 51.4 5.1 51.4 2C51.4 1.4 51.4 0.6 52.2 0.7C52.6 0.7 53.3 1.3 53.4 1.7C53.7 3.3 54 5 54 6.6C54.1 14.6 53.5 22.5 51.2 30.1C49.3 36.2 46.9 42 41.8 46.3C40.5 47.4 39 48.4 37.6 49.5C37.4 49.5 37.3 49.4 37.2 49.3Z" fill="#005099"></path>
<path d="M10.6 13.6C11.3 15.3 12 16.9 12.8 18.5C14.4 21.8 16.6 24.5 19.5 26.7C20.3 27.3 21.3 27.8 22.3 28.2C23 28.5 23.5 28.7 23.5 29.6C23.5 30.5 23.2 30.9 22.4 31.3C19.8 32.5 17.1 32.7 14.4 32.7C9.8 32.6 5.3 31.5 0.899996 30.2C0.599996 30.1 0.199997 29.6 0.199997 29.3C0.199997 23.4 3.79999 16.5 10.6 13.6Z" fill="#005099"></path>
<path d="M0.200001 31.5C8.1 33.5 15.9 35.8 24 32C24.2 32.2 24.5 32.6 24.8 32.9C25.4 33.4 25.2 33.9 24.7 34.4C21.2 38.7 16.8 41.9 11.9 44.3C10.4 45 8.9 45.8 7.3 46.4C7 46.5 6.3 46.5 6.1 46.2C2.4 42.2 0.3 37.5 0 32C0 31.9 0.100001 31.8 0.200001 31.5Z" fill="#005099"></path>
<path d="M7.6 47.9C8.4 47.5 8.9 47.2 9.4 46.9C15.7 44.1 21.6 40.6 25.9 35C26.1 34.7 26.7 34.6 27.1 34.7C27.8 34.9 28.5 35.2 28.4 36.2C28 39.7 27.5 43.2 26.1 46.5C25.3 48.5 24.4 50.4 23.4 52.4C23.2 52.8 22.6 53.3 22.2 53.3C17.1 53.1 12.4 51.6 8.4 48.4C8.2 48.2 8 48.1 7.6 47.9Z" fill="#005099"></path>
<path d="M18 11.6C19.7 11.8 21.1 12 22.5 12.3C25 12.8 26.6 14.4 27.4 16.7C28.4 19.4 28.5 22.1 27.1 24.7C25.7 27.4 23.6 27.9 21 26.3C17.7 24.1 15.3 21 13.6 17.5C13 16.3 12.6 15.1 12.1 13.9C11.8 13.1 12 12.8 12.8 12.7C14.7 12.3 16.5 11.9 18 11.6Z" fill="#005099"></path>
<path d="M24.7 53.1C25.7 50.8 26.8 48.6 27.5 46.3C28.4 43.3 28.9 40.3 29.6 37.3C29.7 36.8 29.8 36 30.2 35.8C31 35.4 32.6 36 32.8 36.7C33.6 38.8 34.4 40.9 34.9 43.1C35.4 45.1 35.5 47.2 35.7 49.3C35.7 49.7 35.4 50.4 35.1 50.6C31.9 52.2 28.6 53 25.1 53.2C25.1 53.3 24.9 53.2 24.7 53.1Z" fill="#005099"></path>
<path d="M41.9 27.8C41.3 25.8 40.5 23.8 40 21.8C38.6 16.4 37.6 10.8 37.7 5.2C37.7 4.2 37.5 3 38.6 2.5C39.7 2 40.6 2.9 41.4 3.6C42.4 4.4 43.2 5.3 44.1 6.2C44.6 6.7 44.6 7.1 44.2 7.6C41.8 10.7 41.5 14.3 41.8 18.1C42 20.8 42.2 23.6 42.4 26.3C42.4 26.8 42.4 27.2 42.4 27.7C42.2 27.7 42 27.8 41.9 27.8Z" fill="#005099"></path>
</svg>