<svg class="icon icon-cart" id="SVGDoc" width="13" height="13" xmlns="http://www.w3.org/2000/svg" version="1.1" xmlns:xlink="http://www.w3.org/1999/xlink" xmlns:avocode="https://avocode.com/" viewBox="0 0 13 13"><defs></defs><desc>Generated with Avocode.</desc><g><g><title>Shape</title><path d="M5.66858,1.50987c2.33142,0 4.15698,1.85714 4.15698,4.15215c0,2.33798 -1.82556,4.15215 -4.15698,4.15215c-2.28247,0 -4.15698,-1.87224 -4.15698,-4.15215c0,-2.27991 1.85938,-4.15215 4.15698,-4.15215zM5.66858,11.32404c1.33142,0 2.47913,-0.43787 3.4314,-1.16261l2.61511,2.61208c0.15125,0.15099 0.34766,0.22648 0.52905,0.22648c0.1814,0 0.39307,-0.07549 0.52917,-0.22648c0.30225,-0.30198 0.30225,-0.77352 0,-1.07201l-2.6001,-2.61208c0.72559,-0.95123 1.16394,-2.14402 1.16394,-3.42741c0,-3.12543 -2.53943,-5.66202 -5.66858,-5.66202c-3.12903,0 -5.66858,2.53659 -5.66858,5.66202c0,3.12544 2.53955,5.66203 5.66858,5.66203z" fill="#005099" fill-opacity="1"></path></g></g></svg>