<svg id="SVGDoc" width="25" height="28" xmlns="http://www.w3.org/2000/svg" version="1.1" viewBox="0 0 25 28" xmlns:xlink="http://www.w3.org/1999/xlink" xmlns:avocode="https://avocode.com/"><defs></defs><desc>Generated with Avocode.</desc><g><g><title>Background</title></g><g><title>Vector</title>
<path d="M13.13982,21.7571c-0.08022,0.26781 -0.1893,0.52069 -0.32414,0.75154c-0.61589,0.81247 -1.25608,1.60464 -1.89628,2.38665c-0.22374,0.3059 -0.5735,0.4105 -0.8833,0.26405c-0.41499,-0.19113 -0.74319,-0.59879 -0.89951,-1.11715c-0.12253,-0.38918 -0.04206,-0.83259 0.20259,-1.11716c0.63209,-0.80232 1.25607,-1.60464 1.90437,-2.39681c0.33436,-0.43752 0.88833,-0.45255 1.23744,-0.03351c0.00908,0.01097 0.01799,0.02214 0.02675,0.03351c0.33508,0.28508 0.56328,0.72869 0.63208,1.22888z" fill="#235e6b" fill-opacity="1"></path></g><g><title>Vector</title>
<path d="M15.33689,24.53938c-0.08712,0.27421 -0.20146,0.53349 -0.34036,0.77185c-0.60778,0.80233 -1.23177,1.57418 -1.85576,2.34603c-0.34027,0.44595 -0.90453,0.46169 -1.26029,0.03535c-0.00964,-0.01158 -0.01904,-0.02336 -0.0282,-0.03535l-0.27553,-0.35546c-0.36475,-0.40593 -0.39781,-1.10568 -0.07391,-1.5628c0.02318,-0.0327 0.04781,-0.06357 0.07391,-0.09262c0.60778,-0.78201 1.22367,-1.55386 1.83954,-2.32572c0.32893,-0.45153 0.8876,-0.48342 1.24789,-0.07119c0.01978,0.02265 0.03874,0.04641 0.05681,0.07119c0.26743,0.32499 0.57537,0.62967 0.54295,1.16794z" fill="#235e6b" fill-opacity="1"></path></g><g><title>Vector</title>
<path d="M5.95923,19.69736c-0.5359,-0.07942 -0.99827,-0.50831 -1.21556,-1.12731c-0.14933,-0.46606 -0.02956,-0.99976 0.29173,-1.29997l1.62074,-2.03119c0.61589,-0.77185 1.03728,-0.77185 1.62075,0c0.10292,0.1304 0.19522,0.2733 0.27553,0.42655c0.18727,0.42757 0.12431,0.95903 -0.15397,1.29997c-0.6321,0.81247 -1.26419,1.62495 -1.92059,2.40696c-0.15925,0.13954 -0.334,0.24902 -0.51864,0.32499z" fill="#235e6b" fill-opacity="1"></path></g><g><title>Vector</title>
<path d="M9.6286,17.35c0.51272,0.14594 0.9449,0.57554 1.17504,1.16794c0.16086,0.47469 0.05179,1.02534 -0.26742,1.35074c-0.56726,0.70076 -1.12642,1.42183 -1.69368,2.13275c-0.29984,0.51044 -0.87306,0.61962 -1.28033,0.24385c-0.07427,-0.06855 -0.13986,-0.15072 -0.19455,-0.24385c-0.29173,-0.36561 -0.55916,-0.74138 -0.4376,-1.31012c0.04468,-0.20769 0.128,-0.39903 0.24311,-0.55858c0.61588,-0.80232 1.23987,-1.59448 1.88007,-2.36634c0.17804,-0.16666 0.37115,-0.3064 0.57536,-0.41639z" fill="#235e6b" fill-opacity="1"></path></g><g><title>Vector</title>
<path d="M22.7843,15.508c-0.1998,-0.3886 -0.4219,-0.7586 -0.6645,-1.107c-2.2042,-2.803 -4.4246,-5.57559 -6.63696,-8.30755c-0.45795,-0.7544 -1.31718,-0.9007 -1.91921,-0.32675c-0.09822,0.09369 -0.1859,0.2036 -0.2607,0.32675l-3.24149,4.06235c-0.65689,0.8761 -1.74546,0.9563 -2.47974,0.1828c-0.22987,-0.1386 -0.32653,-0.48454 -0.2159,-0.77262c0.03858,-0.10045 0.09947,-0.18481 0.17538,-0.24293c1.77472,-2.214 3.54133,-4.58034 5.4214,-6.79434c1.81491,-2.31315 4.52532,-3.12194 6.97732,-2.08198c2.5262,0.87769 4.4207,3.50511 4.8622,6.74357c0.5388,2.9633 -0.192,6.0644 -1.9287,8.1857l-0.1053,0.132v0c0,0 -0.0081,0.0203 0.0162,0z" fill="#235e6b" fill-opacity="1"></path></g><g><title>Vector</title>
<path d="M13.9757,21.8748c-0.0491,-1.5198 -1.0163,-2.7408 -2.2286,-2.8132c0.0087,-0.7268 -0.2335,-1.4229 -0.6645,-1.9094c-0.3994,-0.5442 -0.966,-0.8475 -1.55589,-0.8328c0.0299,-0.8846 -0.3073,-1.726 -0.89142,-2.2241c-0.66738,-0.7855 -1.70701,-0.7855 -2.37439,0c-0.68071,0.8125 -1.34522,1.6554 -1.99351,2.5085c-0.17336,0.2779 -0.32787,0.5734 -0.46192,0.8836c-0.99856,-1.1089 -1.90288,-2.3444 -2.69854,-3.6866c-2.10827,-4.22223 -1.08624,-9.78692 2.28276,-12.42912c0.79026,-0.61975 1.66906,-1.04118 2.58758,-1.24084c2.11187,-0.42085 4.26293,0.3696 5.85903,2.15306c-0.0551,0.08928 -0.1146,0.1741 -0.1783,0.2539c-1.5721,2.0312 -3.15236,3.96083 -4.72449,5.9514c-0.5827,0.5866 -0.67565,1.6541 -0.20757,2.3844c0.09884,0.1543 0.21846,0.2856 0.35344,0.3882c1.06515,1.0581 2.59708,0.9307 3.54132,-0.2945c1.1102,-1.38126 2.2042,-2.77262 3.3063,-4.15384c0.3809,-0.47733 0.5511,-0.47733 0.932,0l6.6612,8.41934c0.423,0.3773 0.5217,1.1129 0.2207,1.6429c-0.0608,0.1069 -0.1353,0.2004 -0.2207,0.2765c-0.2403,0.451 -0.6909,0.6462 -1.1021,0.4774c-0.174,-0.091 -0.3312,-0.2259 -0.4619,-0.3961l-4.8055,-6.0631c-0.0734,-0.1132 -0.1644,-0.2065 -0.2674,-0.2742c-0.1877,-0.1173 -0.4158,-0.0437 -0.5349,0.1726c-0.1343,0.2202 -0.1133,0.5323 0.0486,0.7211l1.2156,1.5335v0l3.7115,4.6718c0.3527,0.3192 0.4751,0.9071 0.2917,1.4015c-0.1863,0.4469 -0.7131,1.1781 -1.1993,1.0156c-0.2401,-0.0699 -0.4628,-0.2129 -0.6483,-0.4164c-1.6207,-2.0312 -3.201,-4.0624 -4.8055,-6.0326l-0.1621,-0.2032c-0.1706,-0.2116 -0.4453,-0.2116 -0.6159,0c-0.1646,0.216 -0.1646,0.556 0,0.7719c0.1216,0.1828 0.2675,0.3453 0.3971,0.518l4.4327,5.6162c0.6321,0.7922 0.624,1.3101 0,2.1124c-0.2439,0.4074 -0.6729,0.5645 -1.0534,0.386c-0.1726,-0.1027 -0.3269,-0.2477 -0.4538,-0.4266c-0.3849,-0.5552 -0.9449,-0.8708 -1.5316,-0.8632z" fill="#235e6b" fill-opacity="1"></path></g><g><title>Nxyzfg</title>
<g><title>Vector</title>
<path d="M13.9757,21.8748c-0.0491,-1.5198 -1.0163,-2.7408 -2.2286,-2.8132c0.0087,-0.7268 -0.2335,-1.4229 -0.6645,-1.9094c-0.3994,-0.5442 -0.966,-0.8475 -1.55589,-0.8328c0.0299,-0.8846 -0.3073,-1.726 -0.89142,-2.2241c-0.66738,-0.7855 -1.70701,-0.7855 -2.37439,0c-0.68071,0.8125 -1.34522,1.6554 -1.99351,2.5085c-0.17336,0.2779 -0.32787,0.5734 -0.46192,0.8836c-0.99856,-1.1089 -1.90288,-2.3444 -2.69854,-3.6866c-2.10827,-4.22223 -1.08624,-9.78692 2.28276,-12.42912c0.79026,-0.61975 1.66906,-1.04118 2.58758,-1.24084c2.11187,-0.42085 4.26293,0.3696 5.85903,2.15306c-0.0551,0.08928 -0.1146,0.1741 -0.1783,0.2539c-1.5721,2.0312 -3.15236,3.96083 -4.72449,5.9514c-0.5827,0.5866 -0.67565,1.6541 -0.20757,2.3844c0.09884,0.1543 0.21846,0.2856 0.35344,0.3882c1.06515,1.0581 2.59708,0.9307 3.54132,-0.2945c1.1102,-1.38126 2.2042,-2.77262 3.3063,-4.15384c0.3809,-0.47733 0.5511,-0.47733 0.932,0l6.6612,8.41934c0.423,0.3773 0.5217,1.1129 0.2207,1.6429c-0.0608,0.1069 -0.1353,0.2004 -0.2207,0.2765c-0.2403,0.451 -0.6909,0.6462 -1.1021,0.4774c-0.174,-0.091 -0.3312,-0.2259 -0.4619,-0.3961l-4.8055,-6.0631c-0.0734,-0.1132 -0.1644,-0.2065 -0.2674,-0.2742c-0.1877,-0.1173 -0.4158,-0.0437 -0.5349,0.1726c-0.1343,0.2202 -0.1133,0.5323 0.0486,0.7211l1.2156,1.5335v0l3.7115,4.6718c0.3527,0.3192 0.4751,0.9071 0.2917,1.4015c-0.1863,0.4469 -0.7131,1.1781 -1.1993,1.0156c-0.2401,-0.0699 -0.4628,-0.2129 -0.6483,-0.4164c-1.6207,-2.0312 -3.201,-4.0624 -4.8055,-6.0326l-0.1621,-0.2032c-0.1706,-0.2116 -0.4453,-0.2116 -0.6159,0c-0.1646,0.216 -0.1646,0.556 0,0.7719c0.1216,0.1828 0.2675,0.3453 0.3971,0.518l4.4327,5.6162c0.6321,0.7922 0.624,1.3101 0,2.1124c-0.2439,0.4074 -0.6729,0.5645 -1.0534,0.386c-0.1726,-0.1027 -0.3269,-0.2477 -0.4538,-0.4266c-0.3849,-0.5552 -0.9449,-0.8708 -1.5316,-0.8632z" fill="#235e6b" fill-opacity="1"></path></g><g><title>Vector</title>
<path d="M22.7843,15.508c-0.1998,-0.3886 -0.4219,-0.7586 -0.6645,-1.107c-2.2042,-2.803 -4.4246,-5.57559 -6.63696,-8.30755c-0.45795,-0.7544 -1.31718,-0.9007 -1.91921,-0.32675c-0.09822,0.09369 -0.1859,0.2036 -0.2607,0.32675l-3.24149,4.06235c-0.65689,0.8761 -1.74546,0.9563 -2.47974,0.1828c-0.22987,-0.1386 -0.32653,-0.48454 -0.2159,-0.77262c0.03858,-0.10045 0.09947,-0.18481 0.17538,-0.24293c1.77472,-2.214 3.54133,-4.58034 5.4214,-6.79434c1.81491,-2.31315 4.52532,-3.12194 6.97732,-2.08198c2.5262,0.87769 4.4207,3.50511 4.8622,6.74357c0.5388,2.9633 -0.192,6.0644 -1.9287,8.1857l-0.1053,0.132v0c0,0 -0.0081,0.0203 0.0162,0z" fill="#235e6b" fill-opacity="1"></path></g><g><title>Vector</title>
<path d="M9.6286,17.35c0.51272,0.14594 0.9449,0.57554 1.17504,1.16794c0.16086,0.47469 0.05179,1.02534 -0.26742,1.35074c-0.56726,0.70076 -1.12642,1.42183 -1.69368,2.13275c-0.29984,0.51044 -0.87306,0.61962 -1.28033,0.24385c-0.07427,-0.06855 -0.13986,-0.15072 -0.19455,-0.24385c-0.29173,-0.36561 -0.55916,-0.74138 -0.4376,-1.31012c0.04468,-0.20769 0.128,-0.39903 0.24311,-0.55858c0.61588,-0.80232 1.23987,-1.59448 1.88007,-2.36634c0.17804,-0.16666 0.37115,-0.3064 0.57536,-0.41639z" fill="#235e6b" fill-opacity="1"></path></g><g><title>Vector</title>
<path d="M5.95923,19.69736c-0.5359,-0.07942 -0.99827,-0.50831 -1.21556,-1.12731c-0.14933,-0.46606 -0.02956,-0.99976 0.29173,-1.29997l1.62074,-2.03119c0.61589,-0.77185 1.03728,-0.77185 1.62075,0c0.10292,0.1304 0.19522,0.2733 0.27553,0.42655c0.18727,0.42757 0.12431,0.95903 -0.15397,1.29997c-0.6321,0.81247 -1.26419,1.62495 -1.92059,2.40696c-0.15925,0.13954 -0.334,0.24902 -0.51864,0.32499z" fill="#235e6b" fill-opacity="1"></path></g><g><title>Vector</title>
<path d="M15.33689,24.53938c-0.08712,0.27421 -0.20146,0.53349 -0.34036,0.77185c-0.60778,0.80233 -1.23177,1.57418 -1.85576,2.34603c-0.34027,0.44595 -0.90453,0.46169 -1.26029,0.03535c-0.00964,-0.01158 -0.01904,-0.02336 -0.0282,-0.03535l-0.27553,-0.35546c-0.36475,-0.40593 -0.39781,-1.10568 -0.07391,-1.5628c0.02318,-0.0327 0.04781,-0.06357 0.07391,-0.09262c0.60778,-0.78201 1.22367,-1.55386 1.83954,-2.32572c0.32893,-0.45153 0.8876,-0.48342 1.24789,-0.07119c0.01978,0.02265 0.03874,0.04641 0.05681,0.07119c0.26743,0.32499 0.57537,0.62967 0.54295,1.16794z" fill="#235e6b" fill-opacity="1"></path></g><g><title>Vector</title>
<path d="M13.13982,21.7571c-0.08022,0.26781 -0.1893,0.52069 -0.32414,0.75154c-0.61589,0.81247 -1.25608,1.60464 -1.89628,2.38665c-0.22374,0.3059 -0.5735,0.4105 -0.8833,0.26405c-0.41499,-0.19113 -0.74319,-0.59879 -0.89951,-1.11715c-0.12253,-0.38918 -0.04206,-0.83259 0.20259,-1.11716c0.63209,-0.80232 1.25607,-1.60464 1.90437,-2.39681c0.33436,-0.43752 0.88833,-0.45255 1.23744,-0.03351c0.00908,0.01097 0.01799,0.02214 0.02675,0.03351c0.33508,0.28508 0.56328,0.72869 0.63208,1.22888z" fill="#235e6b" fill-opacity="1"></path></g></g><g><title>Layer_1-2</title>
<g><title>Nxyzfg</title>
<g><title>Vector</title>
<path d="M13.9757,21.8748c-0.0491,-1.5198 -1.0163,-2.7408 -2.2286,-2.8132c0.0087,-0.7268 -0.2335,-1.4229 -0.6645,-1.9094c-0.3994,-0.5442 -0.966,-0.8475 -1.55589,-0.8328c0.0299,-0.8846 -0.3073,-1.726 -0.89142,-2.2241c-0.66738,-0.7855 -1.70701,-0.7855 -2.37439,0c-0.68071,0.8125 -1.34522,1.6554 -1.99351,2.5085c-0.17336,0.2779 -0.32787,0.5734 -0.46192,0.8836c-0.99856,-1.1089 -1.90288,-2.3444 -2.69854,-3.6866c-2.10827,-4.22223 -1.08624,-9.78692 2.28276,-12.42912c0.79026,-0.61975 1.66906,-1.04118 2.58758,-1.24084c2.11187,-0.42085 4.26293,0.3696 5.85903,2.15306c-0.0551,0.08928 -0.1146,0.1741 -0.1783,0.2539c-1.5721,2.0312 -3.15236,3.96083 -4.72449,5.9514c-0.5827,0.5866 -0.67565,1.6541 -0.20757,2.3844c0.09884,0.1543 0.21846,0.2856 0.35344,0.3882c1.06515,1.0581 2.59708,0.9307 3.54132,-0.2945c1.1102,-1.38126 2.2042,-2.77262 3.3063,-4.15384c0.3809,-0.47733 0.5511,-0.47733 0.932,0l6.6612,8.41934c0.423,0.3773 0.5217,1.1129 0.2207,1.6429c-0.0608,0.1069 -0.1353,0.2004 -0.2207,0.2765c-0.2403,0.451 -0.6909,0.6462 -1.1021,0.4774c-0.174,-0.091 -0.3312,-0.2259 -0.4619,-0.3961l-4.8055,-6.0631c-0.0734,-0.1132 -0.1644,-0.2065 -0.2674,-0.2742c-0.1877,-0.1173 -0.4158,-0.0437 -0.5349,0.1726c-0.1343,0.2202 -0.1133,0.5323 0.0486,0.7211l1.2156,1.5335v0l3.7115,4.6718c0.3527,0.3192 0.4751,0.9071 0.2917,1.4015c-0.1863,0.4469 -0.7131,1.1781 -1.1993,1.0156c-0.2401,-0.0699 -0.4628,-0.2129 -0.6483,-0.4164c-1.6207,-2.0312 -3.201,-4.0624 -4.8055,-6.0326l-0.1621,-0.2032c-0.1706,-0.2116 -0.4453,-0.2116 -0.6159,0c-0.1646,0.216 -0.1646,0.556 0,0.7719c0.1216,0.1828 0.2675,0.3453 0.3971,0.518l4.4327,5.6162c0.6321,0.7922 0.624,1.3101 0,2.1124c-0.2439,0.4074 -0.6729,0.5645 -1.0534,0.386c-0.1726,-0.1027 -0.3269,-0.2477 -0.4538,-0.4266c-0.3849,-0.5552 -0.9449,-0.8708 -1.5316,-0.8632z" fill="#235e6b" fill-opacity="1"></path></g><g><title>Vector</title>
<path d="M22.7843,15.508c-0.1998,-0.3886 -0.4219,-0.7586 -0.6645,-1.107c-2.2042,-2.803 -4.4246,-5.57559 -6.63696,-8.30755c-0.45795,-0.7544 -1.31718,-0.9007 -1.91921,-0.32675c-0.09822,0.09369 -0.1859,0.2036 -0.2607,0.32675l-3.24149,4.06235c-0.65689,0.8761 -1.74546,0.9563 -2.47974,0.1828c-0.22987,-0.1386 -0.32653,-0.48454 -0.2159,-0.77262c0.03858,-0.10045 0.09947,-0.18481 0.17538,-0.24293c1.77472,-2.214 3.54133,-4.58034 5.4214,-6.79434c1.81491,-2.31315 4.52532,-3.12194 6.97732,-2.08198c2.5262,0.87769 4.4207,3.50511 4.8622,6.74357c0.5388,2.9633 -0.192,6.0644 -1.9287,8.1857l-0.1053,0.132v0c0,0 -0.0081,0.0203 0.0162,0z" fill="#235e6b" fill-opacity="1"></path></g><g><title>Vector</title>
<path d="M9.6286,17.35c0.51272,0.14594 0.9449,0.57554 1.17504,1.16794c0.16086,0.47469 0.05179,1.02534 -0.26742,1.35074c-0.56726,0.70076 -1.12642,1.42183 -1.69368,2.13275c-0.29984,0.51044 -0.87306,0.61962 -1.28033,0.24385c-0.07427,-0.06855 -0.13986,-0.15072 -0.19455,-0.24385c-0.29173,-0.36561 -0.55916,-0.74138 -0.4376,-1.31012c0.04468,-0.20769 0.128,-0.39903 0.24311,-0.55858c0.61588,-0.80232 1.23987,-1.59448 1.88007,-2.36634c0.17804,-0.16666 0.37115,-0.3064 0.57536,-0.41639z" fill="#235e6b" fill-opacity="1"></path></g><g><title>Vector</title>
<path d="M5.95923,19.69736c-0.5359,-0.07942 -0.99827,-0.50831 -1.21556,-1.12731c-0.14933,-0.46606 -0.02956,-0.99976 0.29173,-1.29997l1.62074,-2.03119c0.61589,-0.77185 1.03728,-0.77185 1.62075,0c0.10292,0.1304 0.19522,0.2733 0.27553,0.42655c0.18727,0.42757 0.12431,0.95903 -0.15397,1.29997c-0.6321,0.81247 -1.26419,1.62495 -1.92059,2.40696c-0.15925,0.13954 -0.334,0.24902 -0.51864,0.32499z" fill="#235e6b" fill-opacity="1"></path></g><g><title>Vector</title>
<path d="M15.33689,24.53938c-0.08712,0.27421 -0.20146,0.53349 -0.34036,0.77185c-0.60778,0.80233 -1.23177,1.57418 -1.85576,2.34603c-0.34027,0.44595 -0.90453,0.46169 -1.26029,0.03535c-0.00964,-0.01158 -0.01904,-0.02336 -0.0282,-0.03535l-0.27553,-0.35546c-0.36475,-0.40593 -0.39781,-1.10568 -0.07391,-1.5628c0.02318,-0.0327 0.04781,-0.06357 0.07391,-0.09262c0.60778,-0.78201 1.22367,-1.55386 1.83954,-2.32572c0.32893,-0.45153 0.8876,-0.48342 1.24789,-0.07119c0.01978,0.02265 0.03874,0.04641 0.05681,0.07119c0.26743,0.32499 0.57537,0.62967 0.54295,1.16794z" fill="#235e6b" fill-opacity="1"></path></g><g><title>Vector</title>
<path d="M13.13982,21.7571c-0.08022,0.26781 -0.1893,0.52069 -0.32414,0.75154c-0.61589,0.81247 -1.25608,1.60464 -1.89628,2.38665c-0.22374,0.3059 -0.5735,0.4105 -0.8833,0.26405c-0.41499,-0.19113 -0.74319,-0.59879 -0.89951,-1.11715c-0.12253,-0.38918 -0.04206,-0.83259 0.20259,-1.11716c0.63209,-0.80232 1.25607,-1.60464 1.90437,-2.39681c0.33436,-0.43752 0.88833,-0.45255 1.23744,-0.03351c0.00908,0.01097 0.01799,0.02214 0.02675,0.03351c0.33508,0.28508 0.56328,0.72869 0.63208,1.22888z" fill="#235e6b" fill-opacity="1"></path></g></g></g><g><title>Layer_2</title>
<g><title>Layer_1-2</title>
<g><title>Nxyzfg</title>
<g><title>Vector</title>
<path d="M13.9757,21.8748c-0.0491,-1.5198 -1.0163,-2.7408 -2.2286,-2.8132c0.0087,-0.7268 -0.2335,-1.4229 -0.6645,-1.9094c-0.3994,-0.5442 -0.966,-0.8475 -1.55589,-0.8328c0.0299,-0.8846 -0.3073,-1.726 -0.89142,-2.2241c-0.66738,-0.7855 -1.70701,-0.7855 -2.37439,0c-0.68071,0.8125 -1.34522,1.6554 -1.99351,2.5085c-0.17336,0.2779 -0.32787,0.5734 -0.46192,0.8836c-0.99856,-1.1089 -1.90288,-2.3444 -2.69854,-3.6866c-2.10827,-4.22223 -1.08624,-9.78692 2.28276,-12.42912c0.79026,-0.61975 1.66906,-1.04118 2.58758,-1.24084c2.11187,-0.42085 4.26293,0.3696 5.85903,2.15306c-0.0551,0.08928 -0.1146,0.1741 -0.1783,0.2539c-1.5721,2.0312 -3.15236,3.96083 -4.72449,5.9514c-0.5827,0.5866 -0.67565,1.6541 -0.20757,2.3844c0.09884,0.1543 0.21846,0.2856 0.35344,0.3882c1.06515,1.0581 2.59708,0.9307 3.54132,-0.2945c1.1102,-1.38126 2.2042,-2.77262 3.3063,-4.15384c0.3809,-0.47733 0.5511,-0.47733 0.932,0l6.6612,8.41934c0.423,0.3773 0.5217,1.1129 0.2207,1.6429c-0.0608,0.1069 -0.1353,0.2004 -0.2207,0.2765c-0.2403,0.451 -0.6909,0.6462 -1.1021,0.4774c-0.174,-0.091 -0.3312,-0.2259 -0.4619,-0.3961l-4.8055,-6.0631c-0.0734,-0.1132 -0.1644,-0.2065 -0.2674,-0.2742c-0.1877,-0.1173 -0.4158,-0.0437 -0.5349,0.1726c-0.1343,0.2202 -0.1133,0.5323 0.0486,0.7211l1.2156,1.5335v0l3.7115,4.6718c0.3527,0.3192 0.4751,0.9071 0.2917,1.4015c-0.1863,0.4469 -0.7131,1.1781 -1.1993,1.0156c-0.2401,-0.0699 -0.4628,-0.2129 -0.6483,-0.4164c-1.6207,-2.0312 -3.201,-4.0624 -4.8055,-6.0326l-0.1621,-0.2032c-0.1706,-0.2116 -0.4453,-0.2116 -0.6159,0c-0.1646,0.216 -0.1646,0.556 0,0.7719c0.1216,0.1828 0.2675,0.3453 0.3971,0.518l4.4327,5.6162c0.6321,0.7922 0.624,1.3101 0,2.1124c-0.2439,0.4074 -0.6729,0.5645 -1.0534,0.386c-0.1726,-0.1027 -0.3269,-0.2477 -0.4538,-0.4266c-0.3849,-0.5552 -0.9449,-0.8708 -1.5316,-0.8632z" fill="#235e6b" fill-opacity="1"></path></g><g><title>Vector</title>
<path d="M22.7843,15.508c-0.1998,-0.3886 -0.4219,-0.7586 -0.6645,-1.107c-2.2042,-2.803 -4.4246,-5.57559 -6.63696,-8.30755c-0.45795,-0.7544 -1.31718,-0.9007 -1.91921,-0.32675c-0.09822,0.09369 -0.1859,0.2036 -0.2607,0.32675l-3.24149,4.06235c-0.65689,0.8761 -1.74546,0.9563 -2.47974,0.1828c-0.22987,-0.1386 -0.32653,-0.48454 -0.2159,-0.77262c0.03858,-0.10045 0.09947,-0.18481 0.17538,-0.24293c1.77472,-2.214 3.54133,-4.58034 5.4214,-6.79434c1.81491,-2.31315 4.52532,-3.12194 6.97732,-2.08198c2.5262,0.87769 4.4207,3.50511 4.8622,6.74357c0.5388,2.9633 -0.192,6.0644 -1.9287,8.1857l-0.1053,0.132v0c0,0 -0.0081,0.0203 0.0162,0z" fill="#235e6b" fill-opacity="1"></path></g><g><title>Vector</title>
<path d="M9.6286,17.35c0.51272,0.14594 0.9449,0.57554 1.17504,1.16794c0.16086,0.47469 0.05179,1.02534 -0.26742,1.35074c-0.56726,0.70076 -1.12642,1.42183 -1.69368,2.13275c-0.29984,0.51044 -0.87306,0.61962 -1.28033,0.24385c-0.07427,-0.06855 -0.13986,-0.15072 -0.19455,-0.24385c-0.29173,-0.36561 -0.55916,-0.74138 -0.4376,-1.31012c0.04468,-0.20769 0.128,-0.39903 0.24311,-0.55858c0.61588,-0.80232 1.23987,-1.59448 1.88007,-2.36634c0.17804,-0.16666 0.37115,-0.3064 0.57536,-0.41639z" fill="#235e6b" fill-opacity="1"></path></g><g><title>Vector</title>
<path d="M5.95923,19.69736c-0.5359,-0.07942 -0.99827,-0.50831 -1.21556,-1.12731c-0.14933,-0.46606 -0.02956,-0.99976 0.29173,-1.29997l1.62074,-2.03119c0.61589,-0.77185 1.03728,-0.77185 1.62075,0c0.10292,0.1304 0.19522,0.2733 0.27553,0.42655c0.18727,0.42757 0.12431,0.95903 -0.15397,1.29997c-0.6321,0.81247 -1.26419,1.62495 -1.92059,2.40696c-0.15925,0.13954 -0.334,0.24902 -0.51864,0.32499z" fill="#235e6b" fill-opacity="1"></path></g><g><title>Vector</title>
<path d="M15.33689,24.53938c-0.08712,0.27421 -0.20146,0.53349 -0.34036,0.77185c-0.60778,0.80233 -1.23177,1.57418 -1.85576,2.34603c-0.34027,0.44595 -0.90453,0.46169 -1.26029,0.03535c-0.00964,-0.01158 -0.01904,-0.02336 -0.0282,-0.03535l-0.27553,-0.35546c-0.36475,-0.40593 -0.39781,-1.10568 -0.07391,-1.5628c0.02318,-0.0327 0.04781,-0.06357 0.07391,-0.09262c0.60778,-0.78201 1.22367,-1.55386 1.83954,-2.32572c0.32893,-0.45153 0.8876,-0.48342 1.24789,-0.07119c0.01978,0.02265 0.03874,0.04641 0.05681,0.07119c0.26743,0.32499 0.57537,0.62967 0.54295,1.16794z" fill="#235e6b" fill-opacity="1"></path></g><g><title>Vector</title>
<path d="M13.13982,21.7571c-0.08022,0.26781 -0.1893,0.52069 -0.32414,0.75154c-0.61589,0.81247 -1.25608,1.60464 -1.89628,2.38665c-0.22374,0.3059 -0.5735,0.4105 -0.8833,0.26405c-0.41499,-0.19113 -0.74319,-0.59879 -0.89951,-1.11715c-0.12253,-0.38918 -0.04206,-0.83259 0.20259,-1.11716c0.63209,-0.80232 1.25607,-1.60464 1.90437,-2.39681c0.33436,-0.43752 0.88833,-0.45255 1.23744,-0.03351c0.00908,0.01097 0.01799,0.02214 0.02675,0.03351c0.33508,0.28508 0.56328,0.72869 0.63208,1.22888z" fill="#235e6b" fill-opacity="1"></path></g></g></g></g><g><title>holding hands 1</title>
<g><title>Background</title></g><g><title>Layer_2</title>
<g><title>Layer_1-2</title>
<g><title>Nxyzfg</title>
<g><title>Vector</title>
<path d="M13.9757,21.8748c-0.0491,-1.5198 -1.0163,-2.7408 -2.2286,-2.8132c0.0087,-0.7268 -0.2335,-1.4229 -0.6645,-1.9094c-0.3994,-0.5442 -0.966,-0.8475 -1.55589,-0.8328c0.0299,-0.8846 -0.3073,-1.726 -0.89142,-2.2241c-0.66738,-0.7855 -1.70701,-0.7855 -2.37439,0c-0.68071,0.8125 -1.34522,1.6554 -1.99351,2.5085c-0.17336,0.2779 -0.32787,0.5734 -0.46192,0.8836c-0.99856,-1.1089 -1.90288,-2.3444 -2.69854,-3.6866c-2.10827,-4.22223 -1.08624,-9.78692 2.28276,-12.42912c0.79026,-0.61975 1.66906,-1.04118 2.58758,-1.24084c2.11187,-0.42085 4.26293,0.3696 5.85903,2.15306c-0.0551,0.08928 -0.1146,0.1741 -0.1783,0.2539c-1.5721,2.0312 -3.15236,3.96083 -4.72449,5.9514c-0.5827,0.5866 -0.67565,1.6541 -0.20757,2.3844c0.09884,0.1543 0.21846,0.2856 0.35344,0.3882c1.06515,1.0581 2.59708,0.9307 3.54132,-0.2945c1.1102,-1.38126 2.2042,-2.77262 3.3063,-4.15384c0.3809,-0.47733 0.5511,-0.47733 0.932,0l6.6612,8.41934c0.423,0.3773 0.5217,1.1129 0.2207,1.6429c-0.0608,0.1069 -0.1353,0.2004 -0.2207,0.2765c-0.2403,0.451 -0.6909,0.6462 -1.1021,0.4774c-0.174,-0.091 -0.3312,-0.2259 -0.4619,-0.3961l-4.8055,-6.0631c-0.0734,-0.1132 -0.1644,-0.2065 -0.2674,-0.2742c-0.1877,-0.1173 -0.4158,-0.0437 -0.5349,0.1726c-0.1343,0.2202 -0.1133,0.5323 0.0486,0.7211l1.2156,1.5335v0l3.7115,4.6718c0.3527,0.3192 0.4751,0.9071 0.2917,1.4015c-0.1863,0.4469 -0.7131,1.1781 -1.1993,1.0156c-0.2401,-0.0699 -0.4628,-0.2129 -0.6483,-0.4164c-1.6207,-2.0312 -3.201,-4.0624 -4.8055,-6.0326l-0.1621,-0.2032c-0.1706,-0.2116 -0.4453,-0.2116 -0.6159,0c-0.1646,0.216 -0.1646,0.556 0,0.7719c0.1216,0.1828 0.2675,0.3453 0.3971,0.518l4.4327,5.6162c0.6321,0.7922 0.624,1.3101 0,2.1124c-0.2439,0.4074 -0.6729,0.5645 -1.0534,0.386c-0.1726,-0.1027 -0.3269,-0.2477 -0.4538,-0.4266c-0.3849,-0.5552 -0.9449,-0.8708 -1.5316,-0.8632z" fill="#235e6b" fill-opacity="1"></path></g><g><title>Vector</title>
<path d="M22.7843,15.508c-0.1998,-0.3886 -0.4219,-0.7586 -0.6645,-1.107c-2.2042,-2.803 -4.4246,-5.57559 -6.63696,-8.30755c-0.45795,-0.7544 -1.31718,-0.9007 -1.91921,-0.32675c-0.09822,0.09369 -0.1859,0.2036 -0.2607,0.32675l-3.24149,4.06235c-0.65689,0.8761 -1.74546,0.9563 -2.47974,0.1828c-0.22987,-0.1386 -0.32653,-0.48454 -0.2159,-0.77262c0.03858,-0.10045 0.09947,-0.18481 0.17538,-0.24293c1.77472,-2.214 3.54133,-4.58034 5.4214,-6.79434c1.81491,-2.31315 4.52532,-3.12194 6.97732,-2.08198c2.5262,0.87769 4.4207,3.50511 4.8622,6.74357c0.5388,2.9633 -0.192,6.0644 -1.9287,8.1857l-0.1053,0.132v0c0,0 -0.0081,0.0203 0.0162,0z" fill="#235e6b" fill-opacity="1"></path></g><g><title>Vector</title>
<path d="M9.6286,17.35c0.51272,0.14594 0.9449,0.57554 1.17504,1.16794c0.16086,0.47469 0.05179,1.02534 -0.26742,1.35074c-0.56726,0.70076 -1.12642,1.42183 -1.69368,2.13275c-0.29984,0.51044 -0.87306,0.61962 -1.28033,0.24385c-0.07427,-0.06855 -0.13986,-0.15072 -0.19455,-0.24385c-0.29173,-0.36561 -0.55916,-0.74138 -0.4376,-1.31012c0.04468,-0.20769 0.128,-0.39903 0.24311,-0.55858c0.61588,-0.80232 1.23987,-1.59448 1.88007,-2.36634c0.17804,-0.16666 0.37115,-0.3064 0.57536,-0.41639z" fill="#235e6b" fill-opacity="1"></path></g><g><title>Vector</title>
<path d="M5.95923,19.69736c-0.5359,-0.07942 -0.99827,-0.50831 -1.21556,-1.12731c-0.14933,-0.46606 -0.02956,-0.99976 0.29173,-1.29997l1.62074,-2.03119c0.61589,-0.77185 1.03728,-0.77185 1.62075,0c0.10292,0.1304 0.19522,0.2733 0.27553,0.42655c0.18727,0.42757 0.12431,0.95903 -0.15397,1.29997c-0.6321,0.81247 -1.26419,1.62495 -1.92059,2.40696c-0.15925,0.13954 -0.334,0.24902 -0.51864,0.32499z" fill="#235e6b" fill-opacity="1"></path></g><g><title>Vector</title>
<path d="M15.33689,24.53938c-0.08712,0.27421 -0.20146,0.53349 -0.34036,0.77185c-0.60778,0.80233 -1.23177,1.57418 -1.85576,2.34603c-0.34027,0.44595 -0.90453,0.46169 -1.26029,0.03535c-0.00964,-0.01158 -0.01904,-0.02336 -0.0282,-0.03535l-0.27553,-0.35546c-0.36475,-0.40593 -0.39781,-1.10568 -0.07391,-1.5628c0.02318,-0.0327 0.04781,-0.06357 0.07391,-0.09262c0.60778,-0.78201 1.22367,-1.55386 1.83954,-2.32572c0.32893,-0.45153 0.8876,-0.48342 1.24789,-0.07119c0.01978,0.02265 0.03874,0.04641 0.05681,0.07119c0.26743,0.32499 0.57537,0.62967 0.54295,1.16794z" fill="#235e6b" fill-opacity="1"></path></g><g><title>Vector</title>
<path d="M13.13982,21.7571c-0.08022,0.26781 -0.1893,0.52069 -0.32414,0.75154c-0.61589,0.81247 -1.25608,1.60464 -1.89628,2.38665c-0.22374,0.3059 -0.5735,0.4105 -0.8833,0.26405c-0.41499,-0.19113 -0.74319,-0.59879 -0.89951,-1.11715c-0.12253,-0.38918 -0.04206,-0.83259 0.20259,-1.11716c0.63209,-0.80232 1.25607,-1.60464 1.90437,-2.39681c0.33436,-0.43752 0.88833,-0.45255 1.23744,-0.03351c0.00908,0.01097 0.01799,0.02214 0.02675,0.03351c0.33508,0.28508 0.56328,0.72869 0.63208,1.22888z" fill="#235e6b" fill-opacity="1"></path></g></g></g></g></g></g></svg>