<svg id="SVGDoc" width="12" height="12" xmlns="http://www.w3.org/2000/svg" version="1.1" xmlns:xlink="http://www.w3.org/1999/xlink" xmlns:avocode="https://avocode.com/" viewBox="0 0 12 12"><defs></defs><desc>Generated with Avocode.</desc><g><g><title>Fill 9</title><path d="M11.74744,10.52131l-4.50024,-4.52131v0l4.47461,-4.43169c0.3374,-0.33454 0.3374,-0.87613 0,-1.20981c-0.33655,-0.3585 -0.8833,-0.3585 -1.21985,0l-4.50195,4.43885v0l-4.50208,-4.54324c-0.33655,-0.33881 -0.8833,-0.33881 -1.21985,0c-0.33655,0.33796 -0.33655,0.88726 0,1.22522l4.52844,4.52067v0l-4.55408,4.53928c-0.33655,0.33454 -0.33655,0.87613 0,1.20981c0.33655,0.33454 0.8833,0.33454 1.2207,0l4.52686,-4.51756v0l4.52844,4.51414c0.33655,0.33882 0.8833,0.33882 1.21985,0c0.33569,-0.3371 0.33569,-0.88554 -0.00085,-1.22436z" fill="#005099" fill-opacity="1"></path></g></g></svg>