<svg id="SVGDoc" class="icon icon-instagram" xmlns="http://www.w3.org/2000/svg" version="1.1" xmlns:xlink="http://www.w3.org/1999/xlink" xmlns:avocode="https://avocode.com/" viewBox="0 0 37 36"><defs></defs><desc>Generated with Avocode.</desc><g><g clip-path="url(#clip-CEA7967A-8947-4D5C-BC17-42287157BE12+E1006B24-B0AB-4FD7-A780-A9D0CB6491E3)"><title>Fill 1</title><path d="M36.19995,18c0,9.93457 -8.06555,18 -17.99994,18c-9.93451,0 -18,-8.06543 -18,-18c0,-9.93457 8.06549,-18 18,-18c9.93439,0 17.99994,8.06543 17.99994,18zM13.56158,6.81787c-1.19739,0.05469 -2.01526,0.24463 -2.7309,0.52295c-0.73969,0.28711 -1.36713,0.65918 -1.99255,1.29736c-0.62543,0.62549 -1.01007,1.25293 -1.29761,1.99268c-0.27814,0.71533 -0.46826,1.5332 -0.54053,2.73096c0,1.19971 0,1.58301 0,4.63818c0,3.05518 0,3.43848 0,4.63818c0.07227,1.19775 0.26239,2.01563 0.54053,2.73096c0.28754,0.73975 0.67218,1.36719 1.29761,1.99268c0.62543,0.63818 1.25287,1.01025 1.99255,1.29785c0.71564,0.27783 1.53351,0.46777 2.7309,0.52246c1.19995,0.05518 1.58313,0.06787 4.63843,0.06787c3.05524,0 3.43842,-0.0127 4.63837,-0.06787c1.16162,-0.05469 2.0152,-0.24463 2.73077,-0.52246c0.73975,-0.2876 1.36713,-0.65967 1.99268,-1.29785c0.62543,-0.62549 1.01013,-1.25293 1.29761,-1.99268c0.27795,-0.71533 0.4682,-1.5332 0.52283,-2.73096c0.05481,-1.19971 0.06775,-1.58301 0.06775,-4.63818c0,-3.05518 -0.01294,-3.43848 -0.06775,-4.63818c-0.05463,-1.19775 -0.24487,-2.01562 -0.52283,-2.73096c-0.28748,-0.73975 -0.67218,-1.36719 -1.29761,-1.99268c-0.62555,-0.63818 -1.25293,-1.01025 -1.99268,-1.29736c-0.71558,-0.27832 -1.56915,-0.46826 -2.73077,-0.52295c-1.19995,-0.05518 -1.58313,-0.06787 -4.63837,-0.06787c-3.0553,0 -3.43848,0.0127 -4.63843,0.06787zM22.74591,8.84277c1.09692,0.0498 1.69257,0.2334 2.08899,0.38721c0.52515,0.2041 0.8999,0.44775 1.29352,0.8418c0.39374,0.39355 0.63751,0.76807 0.87158,1.29346c0.12408,0.39648 0.30737,0.99219 0.35736,2.08887c0.05414,1.18604 0.06555,1.5459 0.06555,4.5459c0,3 -0.01141,3.35986 -0.06555,4.5459c-0.04999,1.09717 -0.23328,1.69238 -0.35736,2.08887c-0.23407,0.52539 -0.47784,0.8999 -0.87158,1.29395c-0.39362,0.39355 -0.76837,0.63721 -1.29352,0.84131c-0.39642,0.15381 -0.99207,0.3374 -2.08899,0.38721c-1.18604,0.0542 -1.54187,0.06592 -4.5459,0.06592c-3.00415,0 -3.3598,-0.01172 -4.54602,-0.06592c-1.09686,-0.0498 -1.65399,-0.2334 -2.08893,-0.38721c-0.56506,-0.2041 -0.89996,-0.44775 -1.29358,-0.84131c-0.39374,-0.39404 -0.63751,-0.76855 -0.84155,-1.29395c-0.15405,-0.39648 -0.33734,-0.9917 -0.42993,-2.08887c0,-1.18604 0,-1.5459 0,-4.5459c0,-3 0,-3.35986 0,-4.5459c0.09259,-1.09668 0.27588,-1.69238 0.42993,-2.08887c0.20404,-0.52539 0.44781,-0.8999 0.84155,-1.29346c0.39362,-0.39404 0.72852,-0.6377 1.29358,-0.8418c0.43494,-0.15381 0.99207,-0.3374 2.08893,-0.38721c1.18628,-0.0542 1.54205,-0.06592 4.54602,-0.06592c3.00385,0 3.35962,0.01172 4.5459,0.06592zM18.20001,12.22314c-3.20001,0 -5.7771,2.58643 -5.7771,5.77686c0,3.19043 2.57709,5.77686 5.7771,5.77686c3.19049,0 5.79999,-2.58643 5.79999,-5.77686c0,-3.19043 -2.6095,-5.77686 -5.79999,-5.77686zM14.45001,18c0,-2.07129 1.67896,-3.75 3.75,-3.75c2.07098,0 3.74994,1.67871 3.74994,3.75c0,2.07129 -1.67896,3.75 -3.74994,3.75c-2.07104,0 -3.75,-1.67871 -3.75,-3.75zM25.5553,12c0,-0.75098 -0.5553,-1.35547 -1.3501,-1.35547c-0.74548,0 -1.34991,0.60449 -1.34991,1.35547c0,0.74023 0.60443,1.34473 1.34991,1.34473c0.7948,0 1.3501,-0.60449 1.3501,-1.34473z" fill="currentcolor" fill-opacity="1"></path></g></g></svg>