<svg width="500" height="450" viewBox="0 0 500 450" fill="none" xmlns="http://www.w3.org/2000/svg">
<path d="M268.175 102.662C269.051 87.788 276.936 76.2196 287.449 65.4776C290.953 61.346 294.458 61.346 296.21 67.9565C299.714 78.6986 303.219 90.267 306.723 101.009C311.104 115.056 309.352 117.535 295.334 120.841C290.953 121.667 285.697 123.32 281.316 125.798C275.184 129.104 273.431 127.451 271.679 121.667C270.803 118.362 269.927 114.23 269.051 110.925C268.175 108.446 268.175 105.967 268.175 102.662V102.662Z" fill="#005099"></path>
<path d="M396.921 94.3651C384.655 110.065 372.39 121.633 353.116 124.112C344.355 124.939 334.717 123.286 325.956 121.633C323.328 121.633 321.576 117.502 319.824 115.023C318.948 113.37 319.824 111.718 319.824 109.239C319.824 104.281 318.071 97.6703 320.7 95.1914C325.956 91.0598 333.841 86.9282 340.85 86.9282C352.239 86.9282 362.753 89.4072 374.142 91.0598C380.275 92.7124 387.283 93.5387 396.92 94.3651H396.921Z" fill="#005099"></path>
<path d="M235.8 169.585C230.543 159.669 226.163 148.927 230.543 139.011C234.924 127.443 241.933 117.527 248.941 107.611C250.694 104.306 255.95 101.827 257.703 108.438C262.083 121.659 265.587 134.88 269.092 148.101C271.72 158.016 269.968 159.669 259.455 162.148C251.57 163.801 244.561 167.106 235.8 169.585V169.585Z" fill="#005099"></path>
<path d="M306.753 167.081C300.62 166.254 293.611 165.428 286.603 163.775C285.726 163.775 283.974 162.949 283.098 162.123C278.718 157.991 280.47 136.507 285.726 134.854C293.611 132.376 302.372 129.897 310.257 129.897C323.399 129.897 336.54 133.202 349.682 134.854C355.815 135.681 356.691 138.986 353.186 143.118C340.921 156.339 326.903 167.081 306.753 167.081Z" fill="#005099"></path>
<path d="M323.369 272.834C323.369 244.739 349.652 221.602 373.307 224.907C369.803 239.781 366.298 255.481 361.918 270.355C360.166 276.965 356.661 280.27 347.9 276.965C340.891 274.486 332.13 274.486 323.369 272.834V272.834Z" fill="#005099"></path>
<path d="M316.358 178.615C312.854 193.488 287.447 211.667 269.925 208.362C267.297 208.362 265.544 207.536 262.916 207.536C241.89 205.883 240.137 204.23 241.014 184.399C241.014 181.92 243.642 178.615 246.27 176.962C255.031 171.178 264.668 168.699 275.181 171.178C288.323 175.309 302.341 176.962 316.358 178.615V178.615Z" fill="#005099"></path>
<path d="M376.812 251.396C380.316 232.391 393.457 215.864 413.608 207.601C416.236 206.775 418.864 205.949 422.369 205.122C426.749 204.296 429.378 205.122 428.502 210.08C424.997 224.954 420.617 239.827 417.112 254.701C415.36 260.485 412.732 261.312 406.599 259.659C399.59 257.18 391.705 257.18 384.696 255.528C381.192 254.701 378.564 252.222 376.812 251.396V251.396Z" fill="#005099"></path>
<path d="M354.953 329.024C337.431 328.197 325.165 318.282 313.776 308.366C312.9 307.539 312.9 304.234 313.776 301.755C315.528 297.624 317.28 293.492 319.033 290.187C324.289 280.271 333.926 284.403 341.811 285.229C347.068 286.055 352.324 289.361 356.705 292.666C366.342 300.103 375.979 307.539 385.616 314.976C390.873 319.108 389.121 321.587 384.74 323.239C374.227 324.892 364.59 326.545 354.953 329.024V329.024Z" fill="#005099"></path>
<path d="M265.547 290.243C269.051 273.716 273.432 260.495 288.325 253.059C295.334 249.753 303.219 245.622 310.228 243.143C315.484 241.49 318.113 243.143 317.237 248.101C313.732 262.148 311.104 275.369 307.6 288.59C305.847 295.201 302.343 299.332 293.582 295.201C288.325 292.722 280.44 294.374 274.308 293.548C270.803 293.548 268.175 291.895 265.547 290.243V290.243Z" fill="#005099"></path>
<path d="M444.296 300.155C438.163 301.808 432.03 304.287 425.898 305.939C405.747 310.071 387.349 307.592 371.579 293.545C367.199 289.413 365.447 286.934 368.951 281.976C369.827 281.15 369.827 279.497 370.703 277.845C373.332 273.713 375.96 267.103 379.464 265.45C388.225 262.971 398.738 262.971 406.623 269.582C414.508 275.366 421.517 281.976 429.402 288.587C433.783 291.892 438.163 294.371 443.42 296.85C444.296 297.676 444.296 299.329 444.296 300.155V300.155Z" fill="#005099"></path>
<path d="M262.023 262.066C258.519 276.939 255.89 290.987 253.262 304.208C250.634 315.776 248.005 317.429 235.74 314.95C229.607 313.297 222.599 312.471 216.466 312.471C207.705 311.644 205.953 309.165 208.581 300.902C212.961 286.855 224.351 277.766 237.492 270.329C245.377 266.197 252.386 260.413 262.023 262.066V262.066Z" fill="#005099"></path>
<path d="M115.73 351.344C134.128 344.734 151.65 338.95 169.172 333.166C183.189 329.034 197.207 324.902 212.101 323.25C219.986 322.424 230.499 323.25 237.508 327.381C251.525 335.645 264.667 346.387 278.685 356.302C276.056 357.955 274.304 360.434 271.676 361.26C244.517 372.002 216.481 366.218 196.331 345.56C194.579 343.081 189.322 342.255 186.694 343.081C160.411 351.344 133.252 360.434 107.845 369.523C104.34 370.35 100.836 374.481 99.0836 377.786C87.6943 399.271 77.1811 420.755 66.6679 441.413C64.0396 446.371 62.2874 451.328 56.1547 449.676C48.2698 447.197 50.8981 441.413 53.5264 436.455C61.4113 419.102 70.1723 401.75 78.9333 384.397C79.8094 382.744 80.6855 380.265 82.4378 376.96C69.2962 379.439 58.783 381.092 47.3937 382.744C36.0043 384.397 23.7389 386.05 12.3496 387.702C7.09298 388.529 0.960271 388.529 0.084169 381.918C-0.791933 374.481 5.34077 374.481 10.5974 373.655C34.2521 369.523 57.9069 365.392 81.5616 361.26C89.4465 359.608 95.5792 356.302 99.9597 348.866C119.234 316.639 140.26 285.239 165.667 257.145C179.685 241.445 197.207 228.224 213.853 216.655C219.986 212.524 231.375 214.176 240.136 214.176C249.773 214.176 260.286 216.655 269.923 217.482C273.428 218.308 276.056 219.134 279.561 220.787C278.684 223.266 278.685 227.398 276.056 229.05C257.658 245.576 230.499 262.929 202.464 249.708C199.835 248.882 195.455 249.708 192.827 251.361C187.57 254.666 182.313 258.797 178.809 262.929C158.659 290.197 138.508 317.466 117.482 345.56C116.606 347.213 116.606 348.039 115.73 351.344V351.344Z" fill="#005099"></path>
<path d="M187.573 198.512C189.326 179.506 196.334 163.806 208.6 149.759C212.104 146.454 215.609 143.149 218.237 150.585C221.741 161.328 225.246 172.896 228.75 183.638C229.626 187.77 230.502 191.901 230.502 195.206C230.502 200.991 227.874 203.47 221.741 204.296C215.609 205.122 209.476 207.601 204.219 210.08C192.83 215.864 191.078 215.038 188.45 202.643C188.45 200.991 187.573 199.338 187.573 198.512V198.512Z" fill="#005099"></path>
<path d="M115.73 351.344C134.128 344.734 151.65 338.95 169.172 333.166C183.189 329.034 197.207 324.902 212.101 323.25C219.986 322.424 230.499 323.25 237.508 327.381C251.525 335.645 264.667 346.387 278.685 356.302C276.056 357.955 274.304 360.434 271.676 361.26C244.517 372.002 216.481 366.218 196.331 345.56C194.579 343.081 189.322 342.255 186.694 343.081C160.411 351.344 133.252 360.434 107.845 369.523C104.34 370.35 100.836 374.481 99.0836 377.786C87.6943 399.271 77.1811 420.755 66.6679 441.413C64.0396 446.371 62.2874 451.328 56.1547 449.676C48.2698 447.197 50.8981 441.413 53.5264 436.455C61.4113 419.102 70.1723 401.75 78.9333 384.397C79.8094 382.744 80.6855 380.265 82.4378 376.96C69.2962 379.439 58.783 381.092 47.3937 382.744C36.0043 384.397 23.7389 386.05 12.3496 387.702C7.09298 388.529 0.960271 388.529 0.084169 381.918C-0.791933 374.481 5.34077 374.481 10.5974 373.655C34.2521 369.523 57.9069 365.392 81.5616 361.26C89.4465 359.608 95.5792 356.302 99.9597 348.866C119.234 316.639 140.26 285.239 165.667 257.145C179.685 241.445 197.207 228.224 213.853 216.655C219.986 212.524 231.375 214.176 240.136 214.176C249.773 214.176 260.286 216.655 269.923 217.482C273.428 218.308 276.056 219.134 279.561 220.787C278.684 223.266 278.685 227.398 276.056 229.05C257.658 245.576 230.499 262.929 202.464 249.708C199.835 248.882 195.455 249.708 192.827 251.361C187.57 254.666 182.313 258.797 178.809 262.929C158.659 290.197 138.508 317.466 117.482 345.56C116.606 347.213 116.606 348.039 115.73 351.344V351.344Z" fill="#005099"></path>
<path d="M444.296 300.155C438.163 301.808 432.03 304.287 425.898 305.939C405.747 310.071 387.349 307.592 371.579 293.545C367.199 289.413 365.447 286.934 368.951 281.976C369.827 281.15 369.827 279.497 370.703 277.845C373.332 273.713 375.96 267.103 379.464 265.45C388.225 262.971 398.738 262.971 406.623 269.582C414.508 275.366 421.517 281.976 429.402 288.587C433.783 291.892 438.163 294.371 443.42 296.85C444.296 297.676 444.296 299.329 444.296 300.155V300.155Z" fill="#005099"></path>
<path d="M354.953 329.024C337.431 328.197 325.165 318.282 313.776 308.366C312.9 307.539 312.9 304.234 313.776 301.755C315.528 297.624 317.28 293.492 319.033 290.187C324.289 280.271 333.926 284.403 341.811 285.229C347.068 286.055 352.324 289.361 356.705 292.666C366.342 300.103 375.979 307.539 385.616 314.976C390.873 319.108 389.121 321.587 384.74 323.239C374.227 324.892 364.59 326.545 354.953 329.024V329.024Z" fill="#005099"></path>
<path d="M316.358 178.615C312.854 193.488 287.447 211.667 269.925 208.362C267.297 208.362 265.544 207.536 262.916 207.536C241.89 205.883 240.137 204.23 241.014 184.399C241.014 181.92 243.642 178.615 246.27 176.962C255.031 171.178 264.668 168.699 275.181 171.178C288.323 175.309 302.341 176.962 316.358 178.615V178.615Z" fill="#005099"></path>
<path d="M306.753 167.081C300.62 166.254 293.611 165.428 286.603 163.775C285.726 163.775 283.974 162.949 283.098 162.123C278.718 157.991 280.47 136.507 285.726 134.854C293.611 132.376 302.372 129.897 310.257 129.897C323.399 129.897 336.54 133.202 349.682 134.854C355.815 135.681 356.691 138.986 353.186 143.118C340.921 156.339 326.903 167.081 306.753 167.081Z" fill="#005099"></path>
<path d="M396.921 94.3651C384.655 110.065 372.39 121.633 353.116 124.112C344.355 124.939 334.717 123.286 325.956 121.633C323.328 121.633 321.576 117.502 319.824 115.023C318.948 113.37 319.824 111.718 319.824 109.239C319.824 104.281 318.071 97.6703 320.7 95.1914C325.956 91.0598 333.841 86.9282 340.85 86.9282C352.239 86.9282 362.753 89.4072 374.142 91.0598C380.275 92.7124 387.283 93.5387 396.92 94.3651H396.921Z" fill="#005099"></path>
<path d="M333.006 335.627C331.254 338.106 330.378 339.759 329.502 340.585C310.228 352.98 271.679 346.369 257.661 328.19C256.785 326.538 256.785 323.232 256.785 321.58C257.662 319.101 259.414 316.622 261.166 314.143C266.423 302.575 275.184 299.269 286.573 305.054C303.219 314.143 317.236 325.711 333.006 335.627V335.627Z" fill="#005099"></path>
<path d="M441.636 240.608C464.415 239.782 476.68 251.35 488.946 262.919C489.822 263.745 489.822 267.051 488.946 268.703C475.804 285.229 443.388 287.708 427.619 273.661C425.866 272.008 424.99 267.051 425.866 263.745C426.743 260.44 430.247 257.135 430.247 253.83C430.247 242.261 435.504 238.956 441.636 240.608V240.608Z" fill="#005099"></path>
<path d="M390.839 38.1757C397.848 39.002 404.857 39.8283 411.866 42.3073C413.618 43.1336 417.122 46.4389 416.246 48.9178C412.742 66.2704 385.582 83.6229 367.184 81.144C361.052 80.3177 357.547 77.8388 358.423 71.2283C358.423 68.7493 358.423 66.2704 357.547 63.7914C354.043 48.9178 355.795 45.6125 372.441 41.481C378.574 39.8283 384.706 39.002 390.839 38.1757V38.1757Z" fill="#005099"></path>
<path d="M187.573 198.512C189.326 179.506 196.334 163.806 208.6 149.759C212.104 146.454 215.609 143.149 218.237 150.585C221.741 161.328 225.246 172.896 228.75 183.638C229.626 187.77 230.502 191.901 230.502 195.206C230.502 200.991 227.874 203.47 221.741 204.296C215.609 205.122 209.476 207.601 204.219 210.08C192.83 215.864 191.078 215.038 188.45 202.643C188.45 200.991 187.573 199.338 187.573 198.512V198.512Z" fill="#005099"></path>
<path d="M262.023 262.066C258.519 276.939 255.89 290.987 253.262 304.208C250.634 315.776 248.005 317.429 235.74 314.95C229.607 313.297 222.599 312.471 216.466 312.471C207.705 311.644 205.953 309.165 208.581 300.902C212.961 286.855 224.351 277.766 237.492 270.329C245.377 266.197 252.386 260.413 262.023 262.066V262.066Z" fill="#005099"></path>
<path d="M265.547 290.243C269.051 273.716 273.432 260.495 288.325 253.059C295.334 249.753 303.219 245.622 310.228 243.143C315.484 241.49 318.113 243.143 317.237 248.101C313.732 262.148 311.104 275.369 307.6 288.59C305.847 295.201 302.343 299.332 293.582 295.201C288.325 292.722 280.44 294.374 274.308 293.548C270.803 293.548 268.175 291.895 265.547 290.243V290.243Z" fill="#005099"></path>
<path d="M376.812 251.396C380.316 232.391 393.457 215.864 413.608 207.601C416.236 206.775 418.864 205.949 422.369 205.122C426.749 204.296 429.378 205.122 428.502 210.08C424.997 224.954 420.617 239.827 417.112 254.701C415.36 260.485 412.732 261.312 406.599 259.659C399.59 257.18 391.705 257.18 384.696 255.528C381.192 254.701 378.564 252.222 376.812 251.396V251.396Z" fill="#005099"></path>
<path d="M323.369 272.834C323.369 244.739 349.652 221.602 373.307 224.907C369.803 239.781 366.298 255.481 361.918 270.355C360.166 276.965 356.661 280.27 347.9 276.965C340.891 274.486 332.13 274.486 323.369 272.834V272.834Z" fill="#005099"></path>
<path d="M235.8 169.585C230.543 159.669 226.163 148.927 230.543 139.011C234.924 127.443 241.933 117.527 248.941 107.611C250.694 104.306 255.95 101.827 257.703 108.438C262.083 121.659 265.587 134.88 269.092 148.101C271.72 158.016 269.968 159.669 259.455 162.148C251.57 163.801 244.561 167.106 235.8 169.585V169.585Z" fill="#005099"></path>
<path d="M268.175 102.662C269.051 87.788 276.936 76.2196 287.449 65.4776C290.953 61.346 294.458 61.346 296.21 67.9565C299.714 78.6986 303.219 90.267 306.723 101.009C311.104 115.056 309.352 117.535 295.334 120.841C290.953 121.667 285.697 123.32 281.316 125.798C275.184 129.104 273.431 127.451 271.679 121.667C270.803 118.362 269.927 114.23 269.051 110.925C268.175 108.446 268.175 105.967 268.175 102.662V102.662Z" fill="#005099"></path>
<path d="M306.723 63.7814C308.476 46.4288 316.36 33.2078 327.75 21.6394C330.378 18.3341 333.883 18.3341 335.635 23.292C339.139 36.513 343.52 48.9077 347.024 61.3024C350.528 72.8708 348.776 73.6971 337.387 76.1761C331.254 77.0024 325.122 79.4813 319.865 81.9603C315.484 84.4392 311.98 83.6128 311.104 78.6549C309.352 74.5234 307.599 68.7392 306.723 63.7814V63.7814Z" fill="#005099"></path>
<path d="M433.758 225.775C439.015 221.643 444.271 217.511 450.404 215.033C464.422 210.075 478.439 210.901 492.457 215.859C499.466 218.338 502.97 221.643 496.837 229.08C495.085 230.733 494.209 233.211 492.457 234.864C487.2 241.475 482.82 243.954 474.059 238.996C463.546 234.038 451.28 233.211 439.891 229.906C438.139 229.08 436.386 229.08 434.634 229.08C434.634 227.427 433.758 226.601 433.758 225.775V225.775Z" fill="#005099"></path>
<path d="M348.776 35.731C349.652 33.252 349.652 29.1205 351.405 26.6416C361.918 10.9416 377.688 3.50476 396.962 0.199503C402.218 -0.626811 405.723 1.02581 404.847 6.81001C403.971 12.5942 403.095 18.3783 402.218 24.1625C401.342 25.8152 398.714 28.2941 396.962 28.2941C382.068 30.773 366.298 33.252 348.776 35.7309V35.731Z" fill="#005099"></path>
<path d="M390.839 38.1757C397.848 39.002 404.857 39.8283 411.866 42.3073C413.618 43.1336 417.122 46.4389 416.246 48.9178C412.742 66.2704 385.582 83.6229 367.184 81.144C361.052 80.3177 357.547 77.8388 358.423 71.2283C358.423 68.7493 358.423 66.2704 357.547 63.7914C354.043 48.9178 355.795 45.6125 372.441 41.481C378.574 39.8283 384.706 39.002 390.839 38.1757V38.1757Z" fill="#005099"></path>
<path d="M348.776 35.731C349.652 33.252 349.652 29.1205 351.405 26.6416C361.918 10.9416 377.688 3.50476 396.962 0.199503C402.218 -0.626811 405.723 1.02581 404.847 6.81001C403.971 12.5942 403.095 18.3783 402.218 24.1625C401.342 25.8152 398.714 28.2941 396.962 28.2941C382.068 30.773 366.298 33.252 348.776 35.7309V35.731Z" fill="#005099"></path>
<path d="M441.636 240.608C464.415 239.782 476.68 251.35 488.946 262.919C489.822 263.745 489.822 267.051 488.946 268.703C475.804 285.229 443.388 287.708 427.619 273.661C425.866 272.008 424.99 267.051 425.866 263.745C426.743 260.44 430.247 257.135 430.247 253.83C430.247 242.261 435.504 238.956 441.636 240.608V240.608Z" fill="#005099"></path>
<path d="M433.758 225.775C439.015 221.643 444.271 217.511 450.404 215.033C464.422 210.075 478.439 210.901 492.457 215.859C499.466 218.338 502.97 221.643 496.837 229.08C495.085 230.733 494.209 233.211 492.457 234.864C487.2 241.475 482.82 243.954 474.059 238.996C463.546 234.038 451.28 233.211 439.891 229.906C438.139 229.08 436.386 229.08 434.634 229.08C434.634 227.427 433.758 226.601 433.758 225.775V225.775Z" fill="#005099"></path>
<path d="M333.006 335.627C331.254 338.106 330.378 339.759 329.502 340.585C310.228 352.98 271.679 346.369 257.661 328.19C256.785 326.538 256.785 323.232 256.785 321.58C257.662 319.101 259.414 316.622 261.166 314.143C266.423 302.575 275.184 299.269 286.573 305.054C303.219 314.143 317.236 325.711 333.006 335.627V335.627Z" fill="#005099"></path>
<path d="M306.723 63.7814C308.476 46.4288 316.36 33.2078 327.75 21.6394C330.378 18.3341 333.883 18.3341 335.635 23.292C339.139 36.513 343.52 48.9077 347.024 61.3024C350.528 72.8708 348.776 73.6971 337.387 76.1761C331.254 77.0024 325.122 79.4813 319.865 81.9603C315.484 84.4392 311.98 83.6128 311.104 78.6549C309.352 74.5234 307.599 68.7392 306.723 63.7814V63.7814Z" fill="#005099"></path>
</svg>