<svg id="SVGDoc" width="22" height="27" xmlns="http://www.w3.org/2000/svg" version="1.1" viewBox="0 0 22 27" xmlns:xlink="http://www.w3.org/1999/xlink" xmlns:avocode="https://avocode.com/"><defs></defs><desc>Generated with Avocode.</desc><g><g><title>Vector</title>
<path d="M0.57893,23.61818c-0.78808,1.31286 -0.70513,2.15752 -0.14932,2.83942c0.55581,0.6819 1.24434,0.7938 2.31448,-0.1832c3.05279,-2.77834 5.18476,-6.37088 7.33331,-9.57668c-0.96211,-0.12345 -1.8965,-0.46876 -2.75413,-1.01772c-2.51706,2.27917 -4.78389,4.94722 -6.74434,7.93818z" fill="#235e6b" fill-opacity="1"></path></g><g><title>Vector</title>
<path d="M21.8715,4.6988c-0.1626,-0.21359 -0.43564,-0.225 -0.60977,-0.02549c-0.00713,0.00821 -0.01401,0.0167 -0.02073,0.02549l-3.93213,4.78326c-0.06861,0.13689 -0.18499,0.22709 -0.31524,0.24425c-0.23708,0.02909 -0.44846,-0.18309 -0.47218,-0.47392c-0.00257,-0.03191 -0.00282,-0.06404 -0.00067,-0.096c0.01751,-0.15554 0.09051,-0.29349 0.1991,-0.37655l3.91554,-4.8138c0.17636,-0.2164 0.17636,-0.56724 0,-0.78364c-0.17637,-0.2164 -0.4624,-0.2164 -0.63877,0l-3.91553,4.80362c-0.16509,0.24457 -0.45834,0.28504 -0.66365,0.09159c-0.1577,-0.25184 -0.12469,-0.6116 0.07466,-0.81417l3.91553,-4.80362c0.09183,-0.11279 0.14011,-0.26827 0.13273,-0.42744c0.0005,-0.14868 -0.04728,-0.29148 -0.13273,-0.39691c-0.09108,-0.0901 -0.20689,-0.13382 -0.32353,-0.12212c-0.12086,0.00156 -0.23659,0.05983 -0.32353,0.16283l-3.89894,4.80362c-0.16508,0.24457 -0.45833,0.28504 -0.66365,0.09159c-0.1577,-0.25184 -0.12468,-0.6116 0.07466,-0.81417l3.91553,-4.74255c0.08396,-0.10664 0.13149,-0.24866 0.13273,-0.39691c-0.00165,-0.14515 -0.04927,-0.28381 -0.13273,-0.38673c-0.17279,-0.18803 -0.43278,-0.18803 -0.60558,0l-2.39743,2.28987c-2.48869,2.51375 -3.25189,3.82661 -3.26848,5.94345c0.01576,0.76933 -0.10602,1.53354 -0.35671,2.23896l1.71719,2.1067c0.57547,-0.3056 1.19806,-0.4549 1.82504,-0.4376c1.72549,0 2.80392,-0.9567 4.84465,-4.00983l1.95772,-2.92084c0.1572,-0.21015 0.1572,-0.53279 0,-0.74293z" fill="#235e6b" fill-opacity="1"></path></g><g><title>Vector</title>
<path d="M1.6604,0.26326c-0.34841,-0.43762 -0.82956,-0.38673 -1.01206,0.59028c-0.12443,0.74293 -0.55581,3.562 1.39367,7.12401c3.06109,5.63815 6.6365,7.53105 8.29563,7.51075c1.30237,0 1.65917,0.8549 2.58827,2.5545c2.2398,3.9182 4.7368,8.6811 6.8521,8.9151c0.4724,0.0707 0.9467,-0.111 1.3025,-0.4986c0.5475,-0.6717 0.6553,-1.6182 -0.4148,-2.9311z" fill="#235e6b" fill-opacity="1"></path></g><g><title>Layer_1-2</title>
<g><title>Vector</title>
<path d="M1.6604,0.26326c-0.34841,-0.43762 -0.82956,-0.38673 -1.01206,0.59028c-0.12443,0.74293 -0.55581,3.562 1.39367,7.12401c3.06109,5.63815 6.6365,7.53105 8.29563,7.51075c1.30237,0 1.65917,0.8549 2.58827,2.5545c2.2398,3.9182 4.7368,8.6811 6.8521,8.9151c0.4724,0.0707 0.9467,-0.111 1.3025,-0.4986c0.5475,-0.6717 0.6553,-1.6182 -0.4148,-2.9311z" fill="#235e6b" fill-opacity="1"></path></g><g><title>Vector</title>
<path d="M21.8715,4.6988c-0.1626,-0.21359 -0.43564,-0.225 -0.60977,-0.02549c-0.00713,0.00821 -0.01401,0.0167 -0.02073,0.02549l-3.93213,4.78326c-0.06861,0.13689 -0.18499,0.22709 -0.31524,0.24425c-0.23708,0.02909 -0.44846,-0.18309 -0.47218,-0.47392c-0.00257,-0.03191 -0.00282,-0.06404 -0.00067,-0.096c0.01751,-0.15554 0.09051,-0.29349 0.1991,-0.37655l3.91554,-4.8138c0.17636,-0.2164 0.17636,-0.56724 0,-0.78364c-0.17637,-0.2164 -0.4624,-0.2164 -0.63877,0l-3.91553,4.80362c-0.16509,0.24457 -0.45834,0.28504 -0.66365,0.09159c-0.1577,-0.25184 -0.12469,-0.6116 0.07466,-0.81417l3.91553,-4.80362c0.09183,-0.11279 0.14011,-0.26827 0.13273,-0.42744c0.0005,-0.14868 -0.04728,-0.29148 -0.13273,-0.39691c-0.09108,-0.0901 -0.20689,-0.13382 -0.32353,-0.12212c-0.12086,0.00156 -0.23659,0.05983 -0.32353,0.16283l-3.89894,4.80362c-0.16508,0.24457 -0.45833,0.28504 -0.66365,0.09159c-0.1577,-0.25184 -0.12468,-0.6116 0.07466,-0.81417l3.91553,-4.74255c0.08396,-0.10664 0.13149,-0.24866 0.13273,-0.39691c-0.00165,-0.14515 -0.04927,-0.28381 -0.13273,-0.38673c-0.17279,-0.18803 -0.43278,-0.18803 -0.60558,0l-2.39743,2.28987c-2.48869,2.51375 -3.25189,3.82661 -3.26848,5.94345c0.01576,0.76933 -0.10602,1.53354 -0.35671,2.23896l1.71719,2.1067c0.57547,-0.3056 1.19806,-0.4549 1.82504,-0.4376c1.72549,0 2.80392,-0.9567 4.84465,-4.00983l1.95772,-2.92084c0.1572,-0.21015 0.1572,-0.53279 0,-0.74293z" fill="#235e6b" fill-opacity="1"></path></g><g><title>Vector</title>
<path d="M0.57893,23.61818c-0.78808,1.31286 -0.70513,2.15752 -0.14932,2.83942c0.55581,0.6819 1.24434,0.7938 2.31448,-0.1832c3.05279,-2.77834 5.18476,-6.37088 7.33331,-9.57668c-0.96211,-0.12345 -1.8965,-0.46876 -2.75413,-1.01772c-2.51706,2.27917 -4.78389,4.94722 -6.74434,7.93818z" fill="#235e6b" fill-opacity="1"></path></g></g><g><title>Layer_2</title>
<g><title>Layer_1-2</title>
<g><title>Vector</title>
<path d="M1.6604,0.26326c-0.34841,-0.43762 -0.82956,-0.38673 -1.01206,0.59028c-0.12443,0.74293 -0.55581,3.562 1.39367,7.12401c3.06109,5.63815 6.6365,7.53105 8.29563,7.51075c1.30237,0 1.65917,0.8549 2.58827,2.5545c2.2398,3.9182 4.7368,8.6811 6.8521,8.9151c0.4724,0.0707 0.9467,-0.111 1.3025,-0.4986c0.5475,-0.6717 0.6553,-1.6182 -0.4148,-2.9311z" fill="#235e6b" fill-opacity="1"></path></g><g><title>Vector</title>
<path d="M21.8715,4.6988c-0.1626,-0.21359 -0.43564,-0.225 -0.60977,-0.02549c-0.00713,0.00821 -0.01401,0.0167 -0.02073,0.02549l-3.93213,4.78326c-0.06861,0.13689 -0.18499,0.22709 -0.31524,0.24425c-0.23708,0.02909 -0.44846,-0.18309 -0.47218,-0.47392c-0.00257,-0.03191 -0.00282,-0.06404 -0.00067,-0.096c0.01751,-0.15554 0.09051,-0.29349 0.1991,-0.37655l3.91554,-4.8138c0.17636,-0.2164 0.17636,-0.56724 0,-0.78364c-0.17637,-0.2164 -0.4624,-0.2164 -0.63877,0l-3.91553,4.80362c-0.16509,0.24457 -0.45834,0.28504 -0.66365,0.09159c-0.1577,-0.25184 -0.12469,-0.6116 0.07466,-0.81417l3.91553,-4.80362c0.09183,-0.11279 0.14011,-0.26827 0.13273,-0.42744c0.0005,-0.14868 -0.04728,-0.29148 -0.13273,-0.39691c-0.09108,-0.0901 -0.20689,-0.13382 -0.32353,-0.12212c-0.12086,0.00156 -0.23659,0.05983 -0.32353,0.16283l-3.89894,4.80362c-0.16508,0.24457 -0.45833,0.28504 -0.66365,0.09159c-0.1577,-0.25184 -0.12468,-0.6116 0.07466,-0.81417l3.91553,-4.74255c0.08396,-0.10664 0.13149,-0.24866 0.13273,-0.39691c-0.00165,-0.14515 -0.04927,-0.28381 -0.13273,-0.38673c-0.17279,-0.18803 -0.43278,-0.18803 -0.60558,0l-2.39743,2.28987c-2.48869,2.51375 -3.25189,3.82661 -3.26848,5.94345c0.01576,0.76933 -0.10602,1.53354 -0.35671,2.23896l1.71719,2.1067c0.57547,-0.3056 1.19806,-0.4549 1.82504,-0.4376c1.72549,0 2.80392,-0.9567 4.84465,-4.00983l1.95772,-2.92084c0.1572,-0.21015 0.1572,-0.53279 0,-0.74293z" fill="#235e6b" fill-opacity="1"></path></g><g><title>Vector</title>
<path d="M0.57893,23.61818c-0.78808,1.31286 -0.70513,2.15752 -0.14932,2.83942c0.55581,0.6819 1.24434,0.7938 2.31448,-0.1832c3.05279,-2.77834 5.18476,-6.37088 7.33331,-9.57668c-0.96211,-0.12345 -1.8965,-0.46876 -2.75413,-1.01772c-2.51706,2.27917 -4.78389,4.94722 -6.74434,7.93818z" fill="#235e6b" fill-opacity="1"></path></g></g></g><g><title>Background</title></g><g><title>Knife Fork 1</title>
<g><title>Background</title></g><g><title>Layer_2</title>
<g><title>Layer_1-2</title>
<g><title>Vector</title>
<path d="M1.6604,0.26326c-0.34841,-0.43762 -0.82956,-0.38673 -1.01206,0.59028c-0.12443,0.74293 -0.55581,3.562 1.39367,7.12401c3.06109,5.63815 6.6365,7.53105 8.29563,7.51075c1.30237,0 1.65917,0.8549 2.58827,2.5545c2.2398,3.9182 4.7368,8.6811 6.8521,8.9151c0.4724,0.0707 0.9467,-0.111 1.3025,-0.4986c0.5475,-0.6717 0.6553,-1.6182 -0.4148,-2.9311z" fill="#235e6b" fill-opacity="1"></path></g><g><title>Vector</title>
<path d="M21.8715,4.6988c-0.1626,-0.21359 -0.43564,-0.225 -0.60977,-0.02549c-0.00713,0.00821 -0.01401,0.0167 -0.02073,0.02549l-3.93213,4.78326c-0.06861,0.13689 -0.18499,0.22709 -0.31524,0.24425c-0.23708,0.02909 -0.44846,-0.18309 -0.47218,-0.47392c-0.00257,-0.03191 -0.00282,-0.06404 -0.00067,-0.096c0.01751,-0.15554 0.09051,-0.29349 0.1991,-0.37655l3.91554,-4.8138c0.17636,-0.2164 0.17636,-0.56724 0,-0.78364c-0.17637,-0.2164 -0.4624,-0.2164 -0.63877,0l-3.91553,4.80362c-0.16509,0.24457 -0.45834,0.28504 -0.66365,0.09159c-0.1577,-0.25184 -0.12469,-0.6116 0.07466,-0.81417l3.91553,-4.80362c0.09183,-0.11279 0.14011,-0.26827 0.13273,-0.42744c0.0005,-0.14868 -0.04728,-0.29148 -0.13273,-0.39691c-0.09108,-0.0901 -0.20689,-0.13382 -0.32353,-0.12212c-0.12086,0.00156 -0.23659,0.05983 -0.32353,0.16283l-3.89894,4.80362c-0.16508,0.24457 -0.45833,0.28504 -0.66365,0.09159c-0.1577,-0.25184 -0.12468,-0.6116 0.07466,-0.81417l3.91553,-4.74255c0.08396,-0.10664 0.13149,-0.24866 0.13273,-0.39691c-0.00165,-0.14515 -0.04927,-0.28381 -0.13273,-0.38673c-0.17279,-0.18803 -0.43278,-0.18803 -0.60558,0l-2.39743,2.28987c-2.48869,2.51375 -3.25189,3.82661 -3.26848,5.94345c0.01576,0.76933 -0.10602,1.53354 -0.35671,2.23896l1.71719,2.1067c0.57547,-0.3056 1.19806,-0.4549 1.82504,-0.4376c1.72549,0 2.80392,-0.9567 4.84465,-4.00983l1.95772,-2.92084c0.1572,-0.21015 0.1572,-0.53279 0,-0.74293z" fill="#235e6b" fill-opacity="1"></path></g><g><title>Vector</title>
<path d="M0.57893,23.61818c-0.78808,1.31286 -0.70513,2.15752 -0.14932,2.83942c0.55581,0.6819 1.24434,0.7938 2.31448,-0.1832c3.05279,-2.77834 5.18476,-6.37088 7.33331,-9.57668c-0.96211,-0.12345 -1.8965,-0.46876 -2.75413,-1.01772c-2.51706,2.27917 -4.78389,4.94722 -6.74434,7.93818z" fill="#235e6b" fill-opacity="1"></path></g></g></g></g></g></svg>