<svg data-name="Layer 1" xmlns="http://www.w3.org/2000/svg" viewBox="0 0 74.05 74.05"><path d="M52,18A37,37,0,1,0,89,55,37,37,0,0,0,52,18m0,72.59A35.57,35.57,0,1,1,87.56,55,35.57,35.57,0,0,1,52,90.59" transform="translate(-14.97 -18)"></path><path d="M62,36.76A11.81,11.81,0,0,0,51.62,43,11.82,11.82,0,1,0,31.9,55.86h0L32,56l.18.22L51.6,79.79l19-23.09A11.82,11.82,0,0,0,62,36.76M51.62,54.18l.08.15h-.16a1,1,0,0,1,.08-.14m-.07,21.28-15.31-30h7.48l7.83,17,7.83-17h7.48Z" transform="translate(-14.97 -18)"></path><polygon points="13.22 59.52 15.83 53.92 16.73 54.81 14.76 58.91 18.79 56.85 19.68 57.72 14.11 60.4 13.22 59.52"></polygon><polygon points="17.43 63.27 20.63 58.41 24.23 60.79 23.69 61.61 21.07 59.88 20.36 60.96 22.8 62.57 22.26 63.38 19.82 61.78 18.95 63.1 21.66 64.89 21.12 65.7 17.43 63.27"></polygon><path d="M41.21,83.75l.37-.9,2.34,1L43,86a3.15,3.15,0,0,1-1.23.17,3.9,3.9,0,0,1-1.41-.29,3.15,3.15,0,0,1-1.32-1,2.44,2.44,0,0,1-.53-1.4,3.55,3.55,0,0,1,.27-1.56,3.31,3.31,0,0,1,1-1.35A2.56,2.56,0,0,1,41.23,80a3,3,0,0,1,1.4.26A2.81,2.81,0,0,1,44,81.3a2.08,2.08,0,0,1,.25,1.46l-1.16-.24a1.22,1.22,0,0,0-.17-.8,1.43,1.43,0,0,0-.69-.55,1.6,1.6,0,0,0-1.32,0,2,2,0,0,0-1,1.16,2.31,2.31,0,0,0-.17,1.61,1.53,1.53,0,0,0,.92.94,2.22,2.22,0,0,0,.74.15,2.34,2.34,0,0,0,.72-.08l.28-.68Z" transform="translate(-14.97 -18)"></path><path d="M49.8,88.15l-1.25-.23-.27-1.39L46,86.13l-.71,1.21-1.22-.22,3.25-5.32,1.22.22Zm-1.71-2.64-.41-2.26-1.15,2Z" transform="translate(-14.97 -18)"></path><polygon points="36.71 70.19 36.31 64.39 37.45 64.31 40.09 68.02 39.83 64.15 40.91 64.07 41.31 69.87 40.14 69.96 37.54 66.33 37.8 70.12 36.71 70.19"></polygon><rect x="58.54" y="86.13" width="1.11" height="1.11" transform="translate(-33.69 -1.68) rotate(-13.6)"></rect><path d="M60.73,83.94a3.63,3.63,0,0,1-.33-1.48,2.76,2.76,0,0,1,.19-.94,2.16,2.16,0,0,1,.49-.77,3.32,3.32,0,0,1,1.06-.7,2.77,2.77,0,0,1,2.2-.07A3.55,3.55,0,0,1,66.06,84a2.75,2.75,0,0,1-1.57,1.53,2.72,2.72,0,0,1-2.21.07,3,3,0,0,1-1.55-1.7m1.1-.5a2.13,2.13,0,0,0,1,1.2,1.5,1.5,0,0,0,1.26,0,1.46,1.46,0,0,0,.86-.91,2.25,2.25,0,0,0-.17-1.57,2.22,2.22,0,0,0-1-1.2,1.46,1.46,0,0,0-1.26,0,1.49,1.49,0,0,0-.88.91,2.2,2.2,0,0,0,.17,1.55" transform="translate(-14.97 -18)"></path><path d="M68.9,83.31l-3.3-4.78,2-1.4a4.19,4.19,0,0,1,1.2-.64,1.38,1.38,0,0,1,.87.07,1.7,1.7,0,0,1,.73.61,1.55,1.55,0,0,1,.3,1.11,1.87,1.87,0,0,1-.64,1.1,2.86,2.86,0,0,1,.79,0,5.91,5.91,0,0,1,1.09.4l1.23.53-1.15.8-1.42-.56a7.27,7.27,0,0,0-1-.35,1,1,0,0,0-.43,0,1.8,1.8,0,0,0-.52.28l-.2.14,1.38,2ZM68,79.89l.71-.49a4.66,4.66,0,0,0,.83-.66.63.63,0,0,0,.13-.39.77.77,0,0,0-.15-.43.68.68,0,0,0-.4-.3.72.72,0,0,0-.49.06c-.09,0-.32.2-.72.47l-.75.52Z" transform="translate(-14.97 -18)"></path><path d="M74.8,75.79l-.71-.67,1.74-1.83,1.67,1.6a3.3,3.3,0,0,1-.28,1.21,3.71,3.71,0,0,1-.78,1.21,3.21,3.21,0,0,1-1.37.89,2.37,2.37,0,0,1-1.49,0,3.51,3.51,0,0,1-1.35-.82,3.27,3.27,0,0,1-.9-1.39,2.49,2.49,0,0,1,0-1.55,3.08,3.08,0,0,1,.75-1.21,2.77,2.77,0,0,1,1.5-.91,2.05,2.05,0,0,1,1.45.3l-.65,1a1.21,1.21,0,0,0-.81-.13,1.42,1.42,0,0,0-.76.44,1.59,1.59,0,0,0-.49,1.22A2.09,2.09,0,0,0,73,76.45a2.28,2.28,0,0,0,1.44.74,1.57,1.57,0,0,0,1.21-.51,2.05,2.05,0,0,0,.4-.63,2.49,2.49,0,0,0,.18-.7l-.53-.51Z" transform="translate(-14.97 -18)"></path><path d="M23.05,47.29l.69-1a2.61,2.61,0,0,1,1.13,1.27,2.58,2.58,0,0,1,0,1.65,2.55,2.55,0,0,1-1.34,1.64,3.13,3.13,0,0,1-2.35.1,3.25,3.25,0,0,1-2-1.4A2.62,2.62,0,0,1,19,47.37a2.49,2.49,0,0,1,1.13-1.52,2.29,2.29,0,0,1,1.23-.27l-.07,1.22a1.29,1.29,0,0,0-.83.21,1.24,1.24,0,0,0-.49.7,1.34,1.34,0,0,0,.15,1.17,2.41,2.41,0,0,0,1.36.84,2.46,2.46,0,0,0,1.66.07,1.32,1.32,0,0,0,.76-.88,1.21,1.21,0,0,0-.06-.88,1.64,1.64,0,0,0-.76-.74" transform="translate(-14.97 -18)"></path><polygon points="11.1 27.46 5.8 24.73 7.83 20.8 8.73 21.26 7.25 24.12 8.43 24.73 9.8 22.07 10.69 22.53 9.32 25.19 10.76 25.93 12.29 22.97 13.18 23.43 11.1 27.46"></polygon><path d="M28.93,40.2l-4.67-3.7,1.57-2a4.5,4.5,0,0,1,1-1,1.4,1.4,0,0,1,.88-.19,1.7,1.7,0,0,1,.9.38,1.57,1.57,0,0,1,.62,1,1.91,1.91,0,0,1-.3,1.27,2.74,2.74,0,0,1,.79-.19,6.91,6.91,0,0,1,1.18.06l1.37.15-.89,1.13L29.81,37a8.68,8.68,0,0,0-1.08,0,.87.87,0,0,0-.42.13,2.12,2.12,0,0,0-.43.43l-.15.19,1.95,1.55ZM27,37.12l.55-.7a4.41,4.41,0,0,0,.61-.89.61.61,0,0,0,0-.42.73.73,0,0,0-.27-.37.8.8,0,0,0-.48-.18.75.75,0,0,0-.46.21c-.07.07-.26.29-.56.68l-.58.74Z" transform="translate(-14.97 -18)"></path><polygon points="18.76 16.75 15.49 13.03 14.16 14.2 13.49 13.44 17.05 10.31 17.72 11.07 16.39 12.24 19.67 15.96 18.76 16.75"></polygon><rect x="35.23" y="26.38" width="1.2" height="5.96" transform="matrix(0.84, -0.55, 0.55, 0.84, -25.2, 6.4)"></rect><polygon points="24.33 12.68 21.84 7.26 25.56 5.55 25.98 6.47 23.36 7.67 23.95 8.96 26.21 7.92 26.63 8.83 24.37 9.87 25.42 12.18 24.33 12.68"></polygon><rect x="43.51" y="22.6" width="1.2" height="5.96" transform="translate(-20.27 -5.03) rotate(-15.8)"></rect><polygon points="32.05 9.86 31.4 3.93 35.8 3.45 35.91 4.46 32.71 4.8 32.85 6.12 35.83 5.79 35.94 6.79 32.96 7.11 33.14 8.73 36.45 8.37 36.55 9.37 32.05 9.86"></polygon><path d="M53.75,21.46l2.18.28A4.12,4.12,0,0,1,57,22a2,2,0,0,1,.82.66,2.66,2.66,0,0,1,.44,1,4.45,4.45,0,0,1,0,1.42A3.79,3.79,0,0,1,58,26.35a2.58,2.58,0,0,1-.77,1,2.05,2.05,0,0,1-.9.36,3.49,3.49,0,0,1-1.07,0L53,27.37Zm1.06,1.16-.51,3.92.89.12a3.44,3.44,0,0,0,.73,0,1,1,0,0,0,.51-.18,1.37,1.37,0,0,0,.39-.53,4.07,4.07,0,0,0,.26-1.07,3.54,3.54,0,0,0,0-1.07,1.47,1.47,0,0,0-.26-.62,1.14,1.14,0,0,0-.52-.35,5.25,5.25,0,0,0-1-.18Z" transform="translate(-14.97 -18)"></path><polygon points="48.31 12.02 49.1 5.73 50.26 6.32 49.62 10.94 52.91 7.66 54.05 8.24 49.46 12.6 48.31 12.02"></polygon><polygon points="51.93 14 55.62 9.32 59.1 12.05 58.47 12.85 55.95 10.85 55.13 11.89 57.48 13.75 56.86 14.53 54.51 12.68 53.5 13.96 56.12 16.02 55.5 16.81 51.93 14"></polygon><path d="M74.75,36.28l.77-.65,1.67,2-1.82,1.53a3.46,3.46,0,0,1-1.2-.42A4.2,4.2,0,0,1,73,37.79a3.32,3.32,0,0,1-.75-1.5,2.49,2.49,0,0,1,.18-1.52,3.61,3.61,0,0,1,1-1.29A3.44,3.44,0,0,1,75,32.71a2.64,2.64,0,0,1,1.59.16,3.1,3.1,0,0,1,1.15.9,2.83,2.83,0,0,1,.76,1.63A2.05,2.05,0,0,1,78,36.84l-.94-.77a1.25,1.25,0,0,0,.22-.81,1.41,1.41,0,0,0-.37-.83,1.68,1.68,0,0,0-1.19-.64,2.11,2.11,0,0,0-1.43.6,2.31,2.31,0,0,0-.91,1.39,1.57,1.57,0,0,0,.39,1.29,2,2,0,0,0,.6.48,2.65,2.65,0,0,0,.7.27l.58-.49Z" transform="translate(-14.97 -18)"></path><path d="M78.12,45.71l-.62-1.15,1-1.1-1.13-2.1-1.43.21-.6-1.12,6.35-.77.6,1.12Zm1-3.06,1.56-1.77-2.33.33Z" transform="translate(-14.97 -18)"></path><polygon points="63.51 28.73 69.2 26.98 69.55 28.1 66.46 31.6 70.26 30.43 70.59 31.5 64.9 33.25 64.54 32.1 67.55 28.66 63.84 29.8 63.51 28.73"></polygon></svg>