<svg data-name="Layer 1" xmlns="http://www.w3.org/2000/svg" viewBox="0 0 65.96 65.56"><path d="M19,54A33,33,0,1,1,52.18,86.78,32.93,32.93,0,0,1,19,54M79.9,54c-.36-2.26-.53-4.57-1.11-6.77-3.73-14-17.66-22.5-32.35-19.76A27,27,0,0,0,25.73,62.76C29.88,74.87,42.39,82.43,55.6,80.81A27.58,27.58,0,0,0,79.9,54" transform="translate(-19.02 -21.22)"></path><path d="M44.84,40.89c0,1.68,0,3.16,0,4.64,0,4.45.08,8.91.11,13.37,0,6.22,4.31,7.42,8.77,6.79,3.76-.52,5.33-2.55,5.4-6.88.09-5.36,0-10.73.05-16.1V41h3.71c0,2.67,0,5.3,0,7.93,0,3.93,0,7.86-.25,11.77-.36,5.16-3.87,8.07-9.2,8.44a18.58,18.58,0,0,1-5-.35c-4.4-.92-6.91-3.93-7.08-8.71-.21-6-.15-12.07-.24-18.11,0-.78.22-1.16,1.06-1.1s1.61,0,2.67,0" transform="translate(-19.02 -21.22)"></path></svg>