<svg aria-hidden="true" viewBox="0 0 10 10" fill="none" xmlns="http://www.w3.org/2000/svg">
    <g>
        <path d="M6.19792 2.8606C6.19792 2.8606 6.65784 2.63403 4.98958 2.63403C4.39212 2.63403 3.80807 2.8112 3.3113 3.14314C2.81453 3.47507 2.42734 3.94686 2.1987 4.49884C1.97006 5.05083 1.91024 5.65822 2.0268 6.2442C2.14336 6.83019 2.43106 7.36845 2.85353 7.79092C3.276 8.21339 3.81427 8.5011 4.40025 8.61766C4.98623 8.73422 5.59362 8.67439 6.14561 8.44575C6.69759 8.21711 7.16938 7.82993 7.50132 7.33315C7.83325 6.83638 8.01042 6.25233 8.01042 5.65487" stroke="#fff" fill="transparent" stroke-width="1.20833" stroke-miterlimit="10" stroke-linecap="round"></path>
        <path d="M4.98975 1.19922L6.50016 2.70964L4.98975 4.22005" stroke="#fff" fill="transparent" stroke-width="1.20833" stroke-linecap="round" stroke-linejoin="round"></path>
    </g>
  </svg>